ISO-10303-21;
HEADER;
/* Generated by software containing ST-Developer
 * from STEP Tools, Inc. (www.steptools.com) 
 */
/* OPTION: using custom renumber hook */

FILE_DESCRIPTION(
/* description */ ('STEP AP242 Edition 2',
'CAx-IF Rec.Pracs.---Representation and Presentation of Product Manufa
cturing Information (PMI)---4.0---2014-10-13',
'CAx-IF Rec.Pracs.---3D Tessellated Geometry---0.4---2014-09-14','2;1',
'CAx-IF Rec.Pracs.---User Defined Attributes---1.5---2016-08-15'),
/* implementation_level */ '2;1');

FILE_NAME(
/* name */ 'Part Studio 1',
/* time_stamp */ '2026-08-07T03:15:09Z',
/* author */ (''),
/* organization */ (''),
/* preprocessor_version */ 'ST-DEVELOPER v20',
/* originating_system */ 'ONSHAPE BY PTC INC, 1.218',
/* authorisation */ '  ');

FILE_SCHEMA (('AP242_MANAGED_MODEL_BASED_3D_ENGINEERING_MIM_LF { 1 0 10303 442 3 1 4 }'));
ENDSEC;

DATA;
#10=SHAPE_REPRESENTATION_RELATIONSHIP('','',#267,#11);
#11=ADVANCED_BREP_SHAPE_REPRESENTATION('',(#265),#815);
#12=PLANE('',#287);
#13=PLANE('',#292);
#14=ELLIPSE('',#285,0.0125,0.01);
#15=ELLIPSE('',#286,0.0125,0.01);
#16=B_SPLINE_CURVE_WITH_KNOTS('',3,(#574,#575,#576,#577,#578,#579,#580,
#581,#582,#583,#584,#585,#586,#587,#588,#589,#590,#591,#592,#593,#594,#595,
#596,#597,#598,#599,#600,#601,#602,#603,#604,#605,#606,#607,#608,#609,#610,
#611,#612,#613,#614,#615,#616,#617,#618,#619,#620,#621,#622,#623,#624,#625,
#626,#627,#628,#629,#630,#631,#632,#633,#634,#635,#636,#637,#638,#639,#640,
#641,#642,#643,#644,#645,#646,#647,#648,#649,#650,#651,#652,#653,#654,#655,
#656),.UNSPECIFIED.,.T.,.F.,(1,3,1,1,1,1,1,1,1,1,1,1,1,1,1,1,1,1,1,1,1,
1,1,1,1,1,1,1,1,1,1,1,1,1,1,1,1,1,1,1,1,1,1,1,1,1,1,1,1,1,1,1,1,1,1,1,1,
1,1,1,1,1,1,1,1,1,1,1,1,1,1,1,1,1,1,1,1,1,1,1,1,3,1),(-0.0078125,0.,0.0078125,
0.015625,0.03125,0.046875,0.0625,0.078125,0.0859375,0.09375,0.109375,0.125,
0.140625,0.15625,0.1640625,0.171875,0.1875,0.203125,0.21875,0.234375,0.2421875,
0.25,0.2578125,0.265625,0.28125,0.296875,0.3125,0.328125,0.3359375,0.34375,
0.359375,0.375,0.390625,0.40625,0.4140625,0.421875,0.4375,0.453125,0.46875,
0.484375,0.4921875,0.5,0.5078125,0.515625,0.53125,0.546875,0.5625,0.578125,
0.5859375,0.59375,0.609375,0.625,0.640625,0.65625,0.6640625,0.671875,0.6875,
0.703125,0.71875,0.734375,0.7421875,0.75,0.7578125,0.765625,0.78125,0.796875,
0.8125,0.828125,0.8359375,0.84375,0.859375,0.875,0.890625,0.90625,0.9140625,
0.921875,0.9375,0.953125,0.96875,0.984375,0.9921875,1.,1.0078125),
 .UNSPECIFIED.);
#17=B_SPLINE_CURVE_WITH_KNOTS('',3,(#658,#659,#660,#661,#662,#663,#664,
#665,#666,#667,#668,#669,#670,#671,#672,#673,#674,#675,#676,#677,#678,#679,
#680,#681,#682,#683,#684,#685,#686,#687,#688,#689,#690,#691,#692,#693,#694,
#695,#696,#697,#698,#699,#700,#701,#702,#703,#704,#705,#706,#707,#708,#709,
#710,#711,#712,#713,#714,#715,#716,#717,#718,#719,#720,#721,#722,#723,#724,
#725,#726,#727,#728,#729,#730,#731,#732,#733,#734,#735,#736,#737,#738,#739,
#740),.UNSPECIFIED.,.T.,.F.,(1,3,1,1,1,1,1,1,1,1,1,1,1,1,1,1,1,1,1,1,1,
1,1,1,1,1,1,1,1,1,1,1,1,1,1,1,1,1,1,1,1,1,1,1,1,1,1,1,1,1,1,1,1,1,1,1,1,
1,1,1,1,1,1,1,1,1,1,1,1,1,1,1,1,1,1,1,1,1,1,1,1,3,1),(-0.0078125,0.,0.0078125,
0.015625,0.03125,0.046875,0.0625,0.078125,0.0859375,0.09375,0.109375,0.125,
0.140625,0.15625,0.1640625,0.171875,0.1875,0.203125,0.21875,0.234375,0.2421875,
0.25,0.2578125,0.265625,0.28125,0.296875,0.3125,0.328125,0.3359375,0.34375,
0.359375,0.375,0.390625,0.40625,0.4140625,0.421875,0.4375,0.453125,0.46875,
0.484375,0.4921875,0.5,0.5078125,0.515625,0.53125,0.546875,0.5625,0.578125,
0.5859375,0.59375,0.609375,0.625,0.640625,0.65625,0.6640625,0.671875,0.6875,
0.703125,0.71875,0.734375,0.7421875,0.75,0.7578125,0.765625,0.78125,0.796875,
0.8125,0.828125,0.8359375,0.84375,0.859375,0.875,0.890625,0.90625,0.9140625,
0.921875,0.9375,0.953125,0.96875,0.984375,0.9921875,1.,1.0078125),
 .UNSPECIFIED.);
#18=B_SPLINE_SURFACE_WITH_KNOTS('',3,1,((#408,#409),(#410,#411),(#412,#413),
(#414,#415),(#416,#417),(#418,#419),(#420,#421),(#422,#423),(#424,#425),
(#426,#427),(#428,#429),(#430,#431),(#432,#433),(#434,#435),(#436,#437),
(#438,#439),(#440,#441),(#442,#443),(#444,#445),(#446,#447),(#448,#449),
(#450,#451),(#452,#453),(#454,#455),(#456,#457),(#458,#459),(#460,#461),
(#462,#463),(#464,#465),(#466,#467),(#468,#469),(#470,#471),(#472,#473),
(#474,#475),(#476,#477),(#478,#479),(#480,#481),(#482,#483),(#484,#485),
(#486,#487),(#488,#489),(#490,#491),(#492,#493),(#494,#495),(#496,#497),
(#498,#499),(#500,#501),(#502,#503),(#504,#505),(#506,#507),(#508,#509),
(#510,#511),(#512,#513),(#514,#515),(#516,#517),(#518,#519),(#520,#521),
(#522,#523),(#524,#525),(#526,#527),(#528,#529),(#530,#531),(#532,#533),
(#534,#535),(#536,#537),(#538,#539),(#540,#541),(#542,#543),(#544,#545),
(#546,#547),(#548,#549),(#550,#551),(#552,#553),(#554,#555),(#556,#557),
(#558,#559),(#560,#561),(#562,#563),(#564,#565),(#566,#567),(#568,#569),
(#570,#571),(#572,#573)),.SURF_OF_LINEAR_EXTRUSION.,.T.,.F.,.F.,(1,3,1,
1,1,1,1,1,1,1,1,1,1,1,1,1,1,1,1,1,1,1,1,1,1,1,1,1,1,1,1,1,1,1,1,1,1,1,1,
1,1,1,1,1,1,1,1,1,1,1,1,1,1,1,1,1,1,1,1,1,1,1,1,1,1,1,1,1,1,1,1,1,1,1,1,
1,1,1,1,1,1,3,1),(2,2),(-0.0078125,0.,0.0078125,0.015625,0.03125,0.046875,
0.0625,0.078125,0.0859375,0.09375,0.109375,0.125,0.140625,0.15625,0.1640625,
0.171875,0.1875,0.203125,0.21875,0.234375,0.2421875,0.25,0.2578125,0.265625,
0.28125,0.296875,0.3125,0.328125,0.3359375,0.34375,0.359375,0.375,0.390625,
0.40625,0.4140625,0.421875,0.4375,0.453125,0.46875,0.484375,0.4921875,0.5,
0.5078125,0.515625,0.53125,0.546875,0.5625,0.578125,0.5859375,0.59375,0.609375,
0.625,0.640625,0.65625,0.6640625,0.671875,0.6875,0.703125,0.71875,0.734375,
0.7421875,0.75,0.7578125,0.765625,0.78125,0.796875,0.8125,0.828125,0.8359375,
0.84375,0.859375,0.875,0.890625,0.90625,0.9140625,0.921875,0.9375,0.953125,
0.96875,0.984375,0.9921875,1.,1.0078125),(0.,1.),.UNSPECIFIED.);
#19=B_SPLINE_SURFACE_WITH_KNOTS('',3,1,((#742,#743),(#744,#745),(#746,#747),
(#748,#749),(#750,#751),(#752,#753),(#754,#755),(#756,#757),(#758,#759),
(#760,#761),(#762,#763),(#764,#765),(#766,#767),(#768,#769),(#770,#771),
(#772,#773),(#774,#775),(#776,#777),(#778,#779)),
 .SURF_OF_LINEAR_EXTRUSION.,.T.,.F.,.F.,(1,1,1,1,1,1,1,1,1,1,1,1,1,1,1,
1,1,1,1,1,1,1,1),(2,2),(-1.17809724509617,-0.785398163397448,-0.392699081698725,
0.,0.392699081698724,0.785398163397448,1.17809724509617,1.5707963267949,
1.96349540849362,2.35619449019234,2.74889357189107,3.14159265358979,3.53429173528852,
3.92699081698724,4.31968989868597,4.71238898038469,5.10508806208341,5.49778714378214,
5.89048622548086,6.28318530717959,6.67588438887831,7.06858347057703,7.46128255227576),
(0.,1.),.UNSPECIFIED.);
#20=CYLINDRICAL_SURFACE('',#277,0.0015);
#21=CYLINDRICAL_SURFACE('',#279,0.0015);
#22=CYLINDRICAL_SURFACE('',#281,0.0015);
#23=CYLINDRICAL_SURFACE('',#283,0.0015);
#24=CYLINDRICAL_SURFACE('',#295,0.0015);
#25=CYLINDRICAL_SURFACE('',#298,0.0015);
#26=CYLINDRICAL_SURFACE('',#301,0.0015);
#27=CYLINDRICAL_SURFACE('',#304,0.0015);
#28=ORIENTED_EDGE('',*,*,#68,.T.);
#29=ORIENTED_EDGE('',*,*,#69,.T.);
#30=ORIENTED_EDGE('',*,*,#70,.T.);
#31=ORIENTED_EDGE('',*,*,#71,.T.);
#32=ORIENTED_EDGE('',*,*,#68,.F.);
#33=ORIENTED_EDGE('',*,*,#72,.T.);
#34=ORIENTED_EDGE('',*,*,#69,.F.);
#35=ORIENTED_EDGE('',*,*,#73,.T.);
#36=ORIENTED_EDGE('',*,*,#70,.F.);
#37=ORIENTED_EDGE('',*,*,#74,.T.);
#38=ORIENTED_EDGE('',*,*,#71,.F.);
#39=ORIENTED_EDGE('',*,*,#75,.T.);
#40=ORIENTED_EDGE('',*,*,#76,.T.);
#41=ORIENTED_EDGE('',*,*,#77,.F.);
#42=ORIENTED_EDGE('',*,*,#78,.F.);
#43=ORIENTED_EDGE('',*,*,#79,.T.);
#44=ORIENTED_EDGE('',*,*,#80,.T.);
#45=ORIENTED_EDGE('',*,*,#81,.T.);
#46=ORIENTED_EDGE('',*,*,#82,.T.);
#47=ORIENTED_EDGE('',*,*,#83,.T.);
#48=ORIENTED_EDGE('',*,*,#76,.F.);
#49=ORIENTED_EDGE('',*,*,#78,.T.);
#50=ORIENTED_EDGE('',*,*,#72,.F.);
#51=ORIENTED_EDGE('',*,*,#73,.F.);
#52=ORIENTED_EDGE('',*,*,#74,.F.);
#53=ORIENTED_EDGE('',*,*,#75,.F.);
#54=ORIENTED_EDGE('',*,*,#77,.T.);
#55=ORIENTED_EDGE('',*,*,#79,.F.);
#56=ORIENTED_EDGE('',*,*,#84,.F.);
#57=ORIENTED_EDGE('',*,*,#84,.T.);
#58=ORIENTED_EDGE('',*,*,#83,.F.);
#59=ORIENTED_EDGE('',*,*,#85,.F.);
#60=ORIENTED_EDGE('',*,*,#85,.T.);
#61=ORIENTED_EDGE('',*,*,#82,.F.);
#62=ORIENTED_EDGE('',*,*,#86,.F.);
#63=ORIENTED_EDGE('',*,*,#86,.T.);
#64=ORIENTED_EDGE('',*,*,#81,.F.);
#65=ORIENTED_EDGE('',*,*,#87,.F.);
#66=ORIENTED_EDGE('',*,*,#87,.T.);
#67=ORIENTED_EDGE('',*,*,#80,.F.);
#68=EDGE_CURVE('',#145,#145,#88,.T.);
#69=EDGE_CURVE('',#147,#147,#89,.T.);
#70=EDGE_CURVE('',#149,#149,#90,.T.);
#71=EDGE_CURVE('',#151,#151,#91,.T.);
#72=EDGE_CURVE('',#152,#152,#92,.T.);
#73=EDGE_CURVE('',#153,#153,#93,.T.);
#74=EDGE_CURVE('',#154,#154,#94,.T.);
#75=EDGE_CURVE('',#155,#155,#95,.T.);
#76=EDGE_CURVE('',#156,#156,#16,.T.);
#77=EDGE_CURVE('',#157,#157,#17,.T.);
#78=EDGE_CURVE('',#158,#158,#14,.T.);
#79=EDGE_CURVE('',#159,#159,#15,.T.);
#80=EDGE_CURVE('',#160,#160,#96,.T.);
#81=EDGE_CURVE('',#161,#161,#97,.T.);
#82=EDGE_CURVE('',#162,#162,#98,.T.);
#83=EDGE_CURVE('',#163,#163,#99,.T.);
#84=EDGE_CURVE('',#165,#165,#100,.T.);
#85=EDGE_CURVE('',#167,#167,#101,.T.);
#86=EDGE_CURVE('',#169,#169,#102,.T.);
#87=EDGE_CURVE('',#171,#171,#103,.T.);
#88=CIRCLE('',#270,0.0015);
#89=CIRCLE('',#272,0.0015);
#90=CIRCLE('',#274,0.0015);
#91=CIRCLE('',#276,0.0015);
#92=CIRCLE('',#278,0.0015);
#93=CIRCLE('',#280,0.0015);
#94=CIRCLE('',#282,0.0015);
#95=CIRCLE('',#284,0.0015);
#96=CIRCLE('',#288,0.0015);
#97=CIRCLE('',#289,0.0015);
#98=CIRCLE('',#290,0.0015);
#99=CIRCLE('',#291,0.0015);
#100=CIRCLE('',#294,0.0015);
#101=CIRCLE('',#297,0.0015);
#102=CIRCLE('',#300,0.0015);
#103=CIRCLE('',#303,0.0015);
#104=EDGE_LOOP('',(#28));
#105=EDGE_LOOP('',(#29));
#106=EDGE_LOOP('',(#30));
#107=EDGE_LOOP('',(#31));
#108=EDGE_LOOP('',(#32));
#109=EDGE_LOOP('',(#33));
#110=EDGE_LOOP('',(#34));
#111=EDGE_LOOP('',(#35));
#112=EDGE_LOOP('',(#36));
#113=EDGE_LOOP('',(#37));
#114=EDGE_LOOP('',(#38));
#115=EDGE_LOOP('',(#39));
#116=EDGE_LOOP('',(#40));
#117=EDGE_LOOP('',(#41));
#118=EDGE_LOOP('',(#42));
#119=EDGE_LOOP('',(#43));
#120=EDGE_LOOP('',(#44));
#121=EDGE_LOOP('',(#45));
#122=EDGE_LOOP('',(#46));
#123=EDGE_LOOP('',(#47));
#124=EDGE_LOOP('',(#48));
#125=EDGE_LOOP('',(#49));
#126=EDGE_LOOP('',(#50));
#127=EDGE_LOOP('',(#51));
#128=EDGE_LOOP('',(#52));
#129=EDGE_LOOP('',(#53));
#130=EDGE_LOOP('',(#54));
#131=EDGE_LOOP('',(#55));
#132=EDGE_LOOP('',(#56));
#133=EDGE_LOOP('',(#57));
#134=EDGE_LOOP('',(#58));
#135=EDGE_LOOP('',(#59));
#136=EDGE_LOOP('',(#60));
#137=EDGE_LOOP('',(#61));
#138=EDGE_LOOP('',(#62));
#139=EDGE_LOOP('',(#63));
#140=EDGE_LOOP('',(#64));
#141=EDGE_LOOP('',(#65));
#142=EDGE_LOOP('',(#66));
#143=EDGE_LOOP('',(#67));
#144=VERTEX_POINT('',#381);
#145=VERTEX_POINT('',#383);
#146=VERTEX_POINT('',#385);
#147=VERTEX_POINT('',#387);
#148=VERTEX_POINT('',#389);
#149=VERTEX_POINT('',#391);
#150=VERTEX_POINT('',#393);
#151=VERTEX_POINT('',#395);
#152=VERTEX_POINT('',#398);
#153=VERTEX_POINT('',#401);
#154=VERTEX_POINT('',#404);
#155=VERTEX_POINT('',#407);
#156=VERTEX_POINT('',#657);
#157=VERTEX_POINT('',#741);
#158=VERTEX_POINT('',#781);
#159=VERTEX_POINT('',#783);
#160=VERTEX_POINT('',#786);
#161=VERTEX_POINT('',#788);
#162=VERTEX_POINT('',#790);
#163=VERTEX_POINT('',#792);
#164=VERTEX_POINT('',#795);
#165=VERTEX_POINT('',#797);
#166=VERTEX_POINT('',#800);
#167=VERTEX_POINT('',#802);
#168=VERTEX_POINT('',#805);
#169=VERTEX_POINT('',#807);
#170=VERTEX_POINT('',#810);
#171=VERTEX_POINT('',#812);
#172=VERTEX_LOOP('',#144);
#173=VERTEX_LOOP('',#146);
#174=VERTEX_LOOP('',#148);
#175=VERTEX_LOOP('',#150);
#176=VERTEX_LOOP('',#164);
#177=VERTEX_LOOP('',#166);
#178=VERTEX_LOOP('',#168);
#179=VERTEX_LOOP('',#170);
#180=FACE_BOUND('',#172,.T.);
#181=FACE_BOUND('',#104,.T.);
#182=FACE_BOUND('',#173,.T.);
#183=FACE_BOUND('',#105,.T.);
#184=FACE_BOUND('',#174,.T.);
#185=FACE_BOUND('',#106,.T.);
#186=FACE_BOUND('',#175,.T.);
#187=FACE_BOUND('',#107,.T.);
#188=FACE_BOUND('',#108,.T.);
#189=FACE_BOUND('',#109,.T.);
#190=FACE_BOUND('',#110,.T.);
#191=FACE_BOUND('',#111,.T.);
#192=FACE_BOUND('',#112,.T.);
#193=FACE_BOUND('',#113,.T.);
#194=FACE_BOUND('',#114,.T.);
#195=FACE_BOUND('',#115,.T.);
#196=FACE_BOUND('',#116,.T.);
#197=FACE_BOUND('',#117,.T.);
#198=FACE_BOUND('',#118,.T.);
#199=FACE_BOUND('',#119,.T.);
#200=FACE_BOUND('',#120,.T.);
#201=FACE_BOUND('',#121,.T.);
#202=FACE_BOUND('',#122,.T.);
#203=FACE_BOUND('',#123,.T.);
#204=FACE_BOUND('',#124,.T.);
#205=FACE_BOUND('',#125,.T.);
#206=FACE_BOUND('',#126,.T.);
#207=FACE_BOUND('',#127,.T.);
#208=FACE_BOUND('',#128,.T.);
#209=FACE_BOUND('',#129,.T.);
#210=FACE_BOUND('',#130,.T.);
#211=FACE_BOUND('',#131,.T.);
#212=FACE_BOUND('',#176,.T.);
#213=FACE_BOUND('',#132,.T.);
#214=FACE_BOUND('',#133,.T.);
#215=FACE_BOUND('',#134,.T.);
#216=FACE_BOUND('',#177,.T.);
#217=FACE_BOUND('',#135,.T.);
#218=FACE_BOUND('',#136,.T.);
#219=FACE_BOUND('',#137,.T.);
#220=FACE_BOUND('',#178,.T.);
#221=FACE_BOUND('',#138,.T.);
#222=FACE_BOUND('',#139,.T.);
#223=FACE_BOUND('',#140,.T.);
#224=FACE_BOUND('',#179,.T.);
#225=FACE_BOUND('',#141,.T.);
#226=FACE_BOUND('',#142,.T.);
#227=FACE_BOUND('',#143,.T.);
#228=CONICAL_SURFACE('',#269,0.0015,1.02974425867665);
#229=CONICAL_SURFACE('',#271,0.0015,1.02974425867665);
#230=CONICAL_SURFACE('',#273,0.0015,1.02974425867665);
#231=CONICAL_SURFACE('',#275,0.0015,1.02974425867665);
#232=CONICAL_SURFACE('',#293,0.0015,1.02974425867665);
#233=CONICAL_SURFACE('',#296,0.0015,1.02974425867665);
#234=CONICAL_SURFACE('',#299,0.0015,1.02974425867665);
#235=CONICAL_SURFACE('',#302,0.0015,1.02974425867665);
#236=ADVANCED_FACE('',(#180,#181),#228,.F.);
#237=ADVANCED_FACE('',(#182,#183),#229,.F.);
#238=ADVANCED_FACE('',(#184,#185),#230,.F.);
#239=ADVANCED_FACE('',(#186,#187),#231,.F.);
#240=ADVANCED_FACE('',(#188,#189),#20,.F.);
#241=ADVANCED_FACE('',(#190,#191),#21,.F.);
#242=ADVANCED_FACE('',(#192,#193),#22,.F.);
#243=ADVANCED_FACE('',(#194,#195),#23,.F.);
#244=ADVANCED_FACE('',(#196,#197),#18,.T.);
#245=ADVANCED_FACE('',(#198,#199),#19,.F.);
#246=ADVANCED_FACE('',(#200,#201,#202,#203,#204,#205),#12,.T.);
#247=ADVANCED_FACE('',(#206,#207,#208,#209,#210,#211),#13,.F.);
#248=ADVANCED_FACE('',(#212,#213),#232,.F.);
#249=ADVANCED_FACE('',(#214,#215),#24,.F.);
#250=ADVANCED_FACE('',(#216,#217),#233,.F.);
#251=ADVANCED_FACE('',(#218,#219),#25,.F.);
#252=ADVANCED_FACE('',(#220,#221),#234,.F.);
#253=ADVANCED_FACE('',(#222,#223),#26,.F.);
#254=ADVANCED_FACE('',(#224,#225),#235,.F.);
#255=ADVANCED_FACE('',(#226,#227),#27,.F.);
#256=CLOSED_SHELL('',(#236,#237,#238,#239,#240,#241,#242,#243,#244,#245,
#246,#247,#248,#249,#250,#251,#252,#253,#254,#255));
#257=STYLED_ITEM('',(#258),#265);
#258=PRESENTATION_STYLE_ASSIGNMENT((#259));
#259=SURFACE_STYLE_USAGE(.BOTH.,#260);
#260=SURFACE_SIDE_STYLE('',(#261));
#261=SURFACE_STYLE_FILL_AREA(#262);
#262=FILL_AREA_STYLE('',(#263));
#263=FILL_AREA_STYLE_COLOUR('',#264);
#264=COLOUR_RGB('',0.615686274509804,0.811764705882353,0.929411764705882);
#265=MANIFOLD_SOLID_BREP('Part 1',#256);
#266=SHAPE_DEFINITION_REPRESENTATION(#820,#267);
#267=SHAPE_REPRESENTATION('Part 1',(#268),#815);
#268=AXIS2_PLACEMENT_3D('',#379,#305,#306);
#269=AXIS2_PLACEMENT_3D('',#380,#307,#308);
#270=AXIS2_PLACEMENT_3D('',#382,#309,#310);
#271=AXIS2_PLACEMENT_3D('',#384,#311,#312);
#272=AXIS2_PLACEMENT_3D('',#386,#313,#314);
#273=AXIS2_PLACEMENT_3D('',#388,#315,#316);
#274=AXIS2_PLACEMENT_3D('',#390,#317,#318);
#275=AXIS2_PLACEMENT_3D('',#392,#319,#320);
#276=AXIS2_PLACEMENT_3D('',#394,#321,#322);
#277=AXIS2_PLACEMENT_3D('',#396,#323,#324);
#278=AXIS2_PLACEMENT_3D('',#397,#325,#326);
#279=AXIS2_PLACEMENT_3D('',#399,#327,#328);
#280=AXIS2_PLACEMENT_3D('',#400,#329,#330);
#281=AXIS2_PLACEMENT_3D('',#402,#331,#332);
#282=AXIS2_PLACEMENT_3D('',#403,#333,#334);
#283=AXIS2_PLACEMENT_3D('',#405,#335,#336);
#284=AXIS2_PLACEMENT_3D('',#406,#337,#338);
#285=AXIS2_PLACEMENT_3D('',#780,#339,#340);
#286=AXIS2_PLACEMENT_3D('',#782,#341,#342);
#287=AXIS2_PLACEMENT_3D('',#784,#343,#344);
#288=AXIS2_PLACEMENT_3D('',#785,#345,#346);
#289=AXIS2_PLACEMENT_3D('',#787,#347,#348);
#290=AXIS2_PLACEMENT_3D('',#789,#349,#350);
#291=AXIS2_PLACEMENT_3D('',#791,#351,#352);
#292=AXIS2_PLACEMENT_3D('',#793,#353,#354);
#293=AXIS2_PLACEMENT_3D('',#794,#355,#356);
#294=AXIS2_PLACEMENT_3D('',#796,#357,#358);
#295=AXIS2_PLACEMENT_3D('',#798,#359,#360);
#296=AXIS2_PLACEMENT_3D('',#799,#361,#362);
#297=AXIS2_PLACEMENT_3D('',#801,#363,#364);
#298=AXIS2_PLACEMENT_3D('',#803,#365,#366);
#299=AXIS2_PLACEMENT_3D('',#804,#367,#368);
#300=AXIS2_PLACEMENT_3D('',#806,#369,#370);
#301=AXIS2_PLACEMENT_3D('',#808,#371,#372);
#302=AXIS2_PLACEMENT_3D('',#809,#373,#374);
#303=AXIS2_PLACEMENT_3D('',#811,#375,#376);
#304=AXIS2_PLACEMENT_3D('',#813,#377,#378);
#305=DIRECTION('',(0.,0.,1.));
#306=DIRECTION('',(1.,0.,0.));
#307=DIRECTION('',(0.,-1.,0.));
#308=DIRECTION('',(1.,0.,0.));
#309=DIRECTION('',(0.,-1.,0.));
#310=DIRECTION('',(-1.,0.,0.));
#311=DIRECTION('',(0.,-1.,0.));
#312=DIRECTION('',(1.,0.,0.));
#313=DIRECTION('',(0.,-1.,0.));
#314=DIRECTION('',(-1.,0.,0.));
#315=DIRECTION('',(0.,-1.,0.));
#316=DIRECTION('',(1.,0.,0.));
#317=DIRECTION('',(0.,-1.,0.));
#318=DIRECTION('',(-1.,0.,0.));
#319=DIRECTION('',(0.,-1.,0.));
#320=DIRECTION('',(1.,0.,0.));
#321=DIRECTION('',(0.,-1.,0.));
#322=DIRECTION('',(-1.,0.,0.));
#323=DIRECTION('',(0.,1.,0.));
#324=DIRECTION('',(-1.,0.,0.));
#325=DIRECTION('',(0.,-1.,0.));
#326=DIRECTION('',(-1.,0.,0.));
#327=DIRECTION('',(0.,1.,0.));
#328=DIRECTION('',(-1.,0.,0.));
#329=DIRECTION('',(0.,-1.,0.));
#330=DIRECTION('',(-1.,0.,0.));
#331=DIRECTION('',(0.,1.,0.));
#332=DIRECTION('',(-1.,0.,0.));
#333=DIRECTION('',(0.,-1.,0.));
#334=DIRECTION('',(-1.,0.,0.));
#335=DIRECTION('',(0.,1.,0.));
#336=DIRECTION('',(-1.,0.,0.));
#337=DIRECTION('',(0.,-1.,0.));
#338=DIRECTION('',(-1.,0.,0.));
#339=DIRECTION('',(0.,1.,0.));
#340=DIRECTION('',(0.,0.,-1.));
#341=DIRECTION('',(0.,1.,0.));
#342=DIRECTION('',(0.,0.,-1.));
#343=DIRECTION('',(0.,1.,0.));
#344=DIRECTION('',(1.,0.,0.));
#345=DIRECTION('',(0.,-1.,0.));
#346=DIRECTION('',(-1.,0.,0.));
#347=DIRECTION('',(0.,-1.,0.));
#348=DIRECTION('',(-1.,0.,0.));
#349=DIRECTION('',(0.,-1.,0.));
#350=DIRECTION('',(-1.,0.,0.));
#351=DIRECTION('',(0.,-1.,0.));
#352=DIRECTION('',(-1.,0.,0.));
#353=DIRECTION('',(0.,1.,0.));
#354=DIRECTION('',(1.,0.,0.));
#355=DIRECTION('',(0.,1.,0.));
#356=DIRECTION('',(1.,0.,0.));
#357=DIRECTION('',(0.,-1.,0.));
#358=DIRECTION('',(-1.,0.,0.));
#359=DIRECTION('',(0.,-1.,0.));
#360=DIRECTION('',(-1.,0.,0.));
#361=DIRECTION('',(0.,1.,0.));
#362=DIRECTION('',(1.,0.,0.));
#363=DIRECTION('',(0.,-1.,0.));
#364=DIRECTION('',(-1.,0.,0.));
#365=DIRECTION('',(0.,-1.,0.));
#366=DIRECTION('',(-1.,0.,0.));
#367=DIRECTION('',(0.,1.,0.));
#368=DIRECTION('',(1.,0.,0.));
#369=DIRECTION('',(0.,-1.,0.));
#370=DIRECTION('',(-1.,0.,0.));
#371=DIRECTION('',(0.,-1.,0.));
#372=DIRECTION('',(-1.,0.,0.));
#373=DIRECTION('',(0.,1.,0.));
#374=DIRECTION('',(1.,0.,0.));
#375=DIRECTION('',(0.,-1.,0.));
#376=DIRECTION('',(-1.,0.,0.));
#377=DIRECTION('',(0.,-1.,0.));
#378=DIRECTION('',(-1.,0.,0.));
#379=CARTESIAN_POINT('',(0.,0.,0.));
#380=CARTESIAN_POINT('',(0.,0.003,0.0098084406927228));
#381=CARTESIAN_POINT('',(0.,0.00390129092854135,0.0098084406927228));
#382=CARTESIAN_POINT('',(0.,0.003,0.0098084406927228));
#383=CARTESIAN_POINT('',(-0.0015,0.003,0.0098084406927228));
#384=CARTESIAN_POINT('',(-0.00601188326254487,0.003,-0.0059837969020009));
#385=CARTESIAN_POINT('',(-0.00601188326254487,0.00390129092854135,-0.0059837969020009));
#386=CARTESIAN_POINT('',(-0.00601188326254487,0.003,-0.0059837969020009));
#387=CARTESIAN_POINT('',(-0.00751188326254487,0.003,-0.0059837969020009));
#388=CARTESIAN_POINT('',(0.00601188326254487,0.003,-0.0059837969020009));
#389=CARTESIAN_POINT('',(0.00601188326254487,0.00390129092854135,-0.0059837969020009));
#390=CARTESIAN_POINT('',(0.00601188326254487,0.003,-0.0059837969020009));
#391=CARTESIAN_POINT('',(0.00451188326254487,0.003,-0.0059837969020009));
#392=CARTESIAN_POINT('',(0.,0.003,-0.0098084406927228));
#393=CARTESIAN_POINT('',(0.,0.00390129092854135,-0.0098084406927228));
#394=CARTESIAN_POINT('',(0.,0.003,-0.0098084406927228));
#395=CARTESIAN_POINT('',(-0.0015,0.003,-0.0098084406927228));
#396=CARTESIAN_POINT('',(0.,0.,0.0098084406927228));
#397=CARTESIAN_POINT('',(0.,0.,0.0098084406927228));
#398=CARTESIAN_POINT('',(-0.0015,0.,0.0098084406927228));
#399=CARTESIAN_POINT('',(-0.00601188326254487,0.,-0.0059837969020009));
#400=CARTESIAN_POINT('',(-0.00601188326254487,0.,-0.0059837969020009));
#401=CARTESIAN_POINT('',(-0.00751188326254487,0.,-0.0059837969020009));
#402=CARTESIAN_POINT('',(0.00601188326254487,0.,-0.0059837969020009));
#403=CARTESIAN_POINT('',(0.00601188326254487,0.,-0.0059837969020009));
#404=CARTESIAN_POINT('',(0.00451188326254487,0.,-0.0059837969020009));
#405=CARTESIAN_POINT('',(0.,0.,-0.0098084406927228));
#406=CARTESIAN_POINT('',(0.,0.,-0.0098084406927228));
#407=CARTESIAN_POINT('',(-0.0015,0.,-0.0098084406927228));
#408=CARTESIAN_POINT('',(-6.7762635780344E-21,0.12,-0.0075));
#409=CARTESIAN_POINT('',(-6.7762635780344E-21,4.16333634234434E-17,-0.0075));
#410=CARTESIAN_POINT('',(-6.16574261809412E-5,0.12,-0.0075));
#411=CARTESIAN_POINT('',(-6.16574261809412E-5,4.16333634234434E-17,-0.0075));
#412=CARTESIAN_POINT('',(-0.000184972278542854,0.12,-0.00749619983753492));
#413=CARTESIAN_POINT('',(-0.000184972278542854,4.16333634234434E-17,-0.00749619983753492));
#414=CARTESIAN_POINT('',(-0.000431725234569839,0.12,-0.00747337888606692));
#415=CARTESIAN_POINT('',(-0.000431725234569839,4.16333634234434E-17,-0.00747337888606692));
#416=CARTESIAN_POINT('',(-0.000743329519109292,0.12,-0.00741581971293416));
#417=CARTESIAN_POINT('',(-0.000743329519109292,4.16333634234434E-17,-0.00741581971293416));
#418=CARTESIAN_POINT('',(-0.00112760726440284,0.12,-0.00729617662344231));
#419=CARTESIAN_POINT('',(-0.00112760726440284,4.16333634234434E-17,-0.00729617662344231));
#420=CARTESIAN_POINT('',(-0.00152477409354673,0.12,-0.00711958687288023));
#421=CARTESIAN_POINT('',(-0.00152477409354673,4.16333634234434E-17,-0.00711958687288023));
#422=CARTESIAN_POINT('',(-0.00186578528080305,0.12,-0.00691911027244365));
#423=CARTESIAN_POINT('',(-0.00186578528080305,4.16333634234434E-17,-0.00691911027244365));
#424=CARTESIAN_POINT('',(-0.00214337280695644,0.12,-0.00672276319188997));
#425=CARTESIAN_POINT('',(-0.00214337280695644,4.16333634234434E-17,-0.00672276319188997));
#426=CARTESIAN_POINT('',(-0.00242108297373636,0.12,-0.00650301768138685));
#427=CARTESIAN_POINT('',(-0.00242108297373636,4.16333634234434E-17,-0.00650301768138685));
#428=CARTESIAN_POINT('',(-0.00276630650892232,0.12,-0.00618368171292603));
#429=CARTESIAN_POINT('',(-0.00276630650892232,4.16333634234434E-17,-0.00618368171292603));
#430=CARTESIAN_POINT('',(-0.00316993764110417,0.12,-0.00572741433755277));
#431=CARTESIAN_POINT('',(-0.00316993764110417,4.16333634234434E-17,-0.00572741433755277));
#432=CARTESIAN_POINT('',(-0.00355424091637512,0.12,-0.00519876235148641));
#433=CARTESIAN_POINT('',(-0.00355424091637512,4.16333634234434E-17,-0.00519876235148641));
#434=CARTESIAN_POINT('',(-0.00385104082298788,0.12,-0.00469991941494784));
#435=CARTESIAN_POINT('',(-0.00385104082298788,4.16333634234434E-17,-0.00469991941494784));
#436=CARTESIAN_POINT('',(-0.0040702213891927,0.12,-0.00426768082788101));
#437=CARTESIAN_POINT('',(-0.0040702213891927,4.16333634234434E-17,-0.00426768082788101));
#438=CARTESIAN_POINT('',(-0.00427577021299769,0.12,-0.00381426578980701));
#439=CARTESIAN_POINT('',(-0.00427577021299769,4.16333634234434E-17,-0.00381426578980701));
#440=CARTESIAN_POINT('',(-0.00450220315107,0.12,-0.00321601822119803));
#441=CARTESIAN_POINT('',(-0.00450220315107,4.16333634234434E-17,-0.00321601822119803));
#442=CARTESIAN_POINT('',(-0.00472032250519518,0.12,-0.00245442391677538));
#443=CARTESIAN_POINT('',(-0.00472032250519518,4.16333634234434E-17,-0.00245442391677538));
#444=CARTESIAN_POINT('',(-0.00488007798087868,0.12,-0.00165844146862877));
#445=CARTESIAN_POINT('',(-0.00488007798087868,4.16333634234434E-17,-0.00165844146862877));
#446=CARTESIAN_POINT('',(-0.0049615780507258,0.12,-0.000974188321543623));
#447=CARTESIAN_POINT('',(-0.0049615780507258,4.16333634234434E-17,-0.000974188321543623));
#448=CARTESIAN_POINT('',(-0.00499447414401859,0.12,-0.00041923988402606));
#449=CARTESIAN_POINT('',(-0.00499447414401859,4.16333634234434E-17,-0.00041923988402606));
#450=CARTESIAN_POINT('',(-0.00500276292799069,0.12,3.99045481085661E-18));
#451=CARTESIAN_POINT('',(-0.00500276292799069,4.16333634234434E-17,3.99045481085661E-18));
#452=CARTESIAN_POINT('',(-0.0049944741440186,0.12,0.000419239884026048));
#453=CARTESIAN_POINT('',(-0.0049944741440186,4.16333634234434E-17,0.000419239884026048));
#454=CARTESIAN_POINT('',(-0.0049615780507258,0.12,0.000974188321543626));
#455=CARTESIAN_POINT('',(-0.0049615780507258,4.16333634234434E-17,0.000974188321543626));
#456=CARTESIAN_POINT('',(-0.00488007798087869,0.12,0.00165844146862876));
#457=CARTESIAN_POINT('',(-0.00488007798087869,4.16333634234434E-17,0.00165844146862876));
#458=CARTESIAN_POINT('',(-0.00472032250519518,0.12,0.00245442391677539));
#459=CARTESIAN_POINT('',(-0.00472032250519518,4.16333634234434E-17,0.00245442391677539));
#460=CARTESIAN_POINT('',(-0.00450220315107001,0.12,0.00321601822119802));
#461=CARTESIAN_POINT('',(-0.00450220315107001,4.16333634234434E-17,0.00321601822119802));
#462=CARTESIAN_POINT('',(-0.00427577021299769,0.12,0.00381426578980702));
#463=CARTESIAN_POINT('',(-0.00427577021299769,4.16333634234434E-17,0.00381426578980702));
#464=CARTESIAN_POINT('',(-0.0040702213891927,0.12,0.004267680827881));
#465=CARTESIAN_POINT('',(-0.0040702213891927,4.16333634234434E-17,0.004267680827881));
#466=CARTESIAN_POINT('',(-0.00385104082298787,0.12,0.00469991941494784));
#467=CARTESIAN_POINT('',(-0.00385104082298787,4.16333634234434E-17,0.00469991941494784));
#468=CARTESIAN_POINT('',(-0.00355424091637511,0.12,0.0051987623514864));
#469=CARTESIAN_POINT('',(-0.00355424091637511,4.16333634234434E-17,0.0051987623514864));
#470=CARTESIAN_POINT('',(-0.00316993764110415,0.12,0.00572741433755278));
#471=CARTESIAN_POINT('',(-0.00316993764110415,4.16333634234434E-17,0.00572741433755278));
#472=CARTESIAN_POINT('',(-0.00276630650892233,0.12,0.00618368171292601));
#473=CARTESIAN_POINT('',(-0.00276630650892233,4.16333634234434E-17,0.00618368171292601));
#474=CARTESIAN_POINT('',(-0.00242108297373634,0.12,0.00650301768138687));
#475=CARTESIAN_POINT('',(-0.00242108297373634,4.16333634234434E-17,0.00650301768138687));
#476=CARTESIAN_POINT('',(-0.00214337280695646,0.12,0.00672276319188995));
#477=CARTESIAN_POINT('',(-0.00214337280695646,4.16333634234434E-17,0.00672276319188995));
#478=CARTESIAN_POINT('',(-0.00186578528080306,0.12,0.00691911027244364));
#479=CARTESIAN_POINT('',(-0.00186578528080306,4.16333634234434E-17,0.00691911027244364));
#480=CARTESIAN_POINT('',(-0.00152477409354674,0.12,0.00711958687288021));
#481=CARTESIAN_POINT('',(-0.00152477409354674,4.16333634234434E-17,0.00711958687288021));
#482=CARTESIAN_POINT('',(-0.00112760726440286,0.12,0.00729617662344229));
#483=CARTESIAN_POINT('',(-0.00112760726440286,4.16333634234434E-17,0.00729617662344229));
#484=CARTESIAN_POINT('',(-0.000743329519109296,0.12,0.00741581971293414));
#485=CARTESIAN_POINT('',(-0.000743329519109296,4.16333634234434E-17,0.00741581971293414));
#486=CARTESIAN_POINT('',(-0.00043172523456985,0.12,0.0074733788860669));
#487=CARTESIAN_POINT('',(-0.00043172523456985,4.16333634234434E-17,0.0074733788860669));
#488=CARTESIAN_POINT('',(-0.000184972278542848,0.12,0.0074961998375349));
#489=CARTESIAN_POINT('',(-0.000184972278542848,4.16333634234434E-17,0.0074961998375349));
#490=CARTESIAN_POINT('',(8.22285275045512E-18,0.12,0.00750190008123252));
#491=CARTESIAN_POINT('',(8.22285275045512E-18,4.16333634234434E-17,0.00750190008123252));
#492=CARTESIAN_POINT('',(0.000184972278542856,0.12,0.00749619983753489));
#493=CARTESIAN_POINT('',(0.000184972278542856,4.16333634234434E-17,0.00749619983753489));
#494=CARTESIAN_POINT('',(0.000431725234569845,0.12,0.00747337888606691));
#495=CARTESIAN_POINT('',(0.000431725234569845,4.16333634234434E-17,0.00747337888606691));
#496=CARTESIAN_POINT('',(0.000743329519109315,0.12,0.00741581971293413));
#497=CARTESIAN_POINT('',(0.000743329519109315,4.16333634234434E-17,0.00741581971293413));
#498=CARTESIAN_POINT('',(0.00112760726440286,0.12,0.00729617662344229));
#499=CARTESIAN_POINT('',(0.00112760726440286,4.16333634234434E-17,0.00729617662344229));
#500=CARTESIAN_POINT('',(0.00152477409354675,0.12,0.00711958687288021));
#501=CARTESIAN_POINT('',(0.00152477409354675,4.16333634234434E-17,0.00711958687288021));
#502=CARTESIAN_POINT('',(0.00186578528080304,0.12,0.00691911027244364));
#503=CARTESIAN_POINT('',(0.00186578528080304,4.16333634234434E-17,0.00691911027244364));
#504=CARTESIAN_POINT('',(0.00214337280695645,0.12,0.00672276319188995));
#505=CARTESIAN_POINT('',(0.00214337280695645,4.16333634234434E-17,0.00672276319188995));
#506=CARTESIAN_POINT('',(0.00242108297373635,0.12,0.00650301768138685));
#507=CARTESIAN_POINT('',(0.00242108297373635,4.16333634234434E-17,0.00650301768138685));
#508=CARTESIAN_POINT('',(0.00276630650892232,0.12,0.00618368171292601));
#509=CARTESIAN_POINT('',(0.00276630650892232,4.16333634234434E-17,0.00618368171292601));
#510=CARTESIAN_POINT('',(0.00316993764110416,0.12,0.00572741433755277));
#511=CARTESIAN_POINT('',(0.00316993764110416,4.16333634234434E-17,0.00572741433755277));
#512=CARTESIAN_POINT('',(0.00355424091637511,0.12,0.0051987623514864));
#513=CARTESIAN_POINT('',(0.00355424091637511,4.16333634234434E-17,0.0051987623514864));
#514=CARTESIAN_POINT('',(0.00385104082298787,0.12,0.00469991941494782));
#515=CARTESIAN_POINT('',(0.00385104082298787,4.16333634234434E-17,0.00469991941494782));
#516=CARTESIAN_POINT('',(0.00407022138919269,0.12,0.004267680827881));
#517=CARTESIAN_POINT('',(0.00407022138919269,4.16333634234434E-17,0.004267680827881));
#518=CARTESIAN_POINT('',(0.00427577021299769,0.12,0.00381426578980698));
#519=CARTESIAN_POINT('',(0.00427577021299769,4.16333634234434E-17,0.00381426578980698));
#520=CARTESIAN_POINT('',(0.00450220315107,0.12,0.003216018221198));
#521=CARTESIAN_POINT('',(0.00450220315107,4.16333634234434E-17,0.003216018221198));
#522=CARTESIAN_POINT('',(0.00472032250519518,0.12,0.00245442391677535));
#523=CARTESIAN_POINT('',(0.00472032250519518,4.16333634234434E-17,0.00245442391677535));
#524=CARTESIAN_POINT('',(0.00488007798087868,0.12,0.00165844146862875));
#525=CARTESIAN_POINT('',(0.00488007798087868,4.16333634234434E-17,0.00165844146862875));
#526=CARTESIAN_POINT('',(0.00496157805072579,0.12,0.000974188321543604));
#527=CARTESIAN_POINT('',(0.00496157805072579,4.16333634234434E-17,0.000974188321543604));
#528=CARTESIAN_POINT('',(0.00499447414401858,0.12,0.000419239884026026));
#529=CARTESIAN_POINT('',(0.00499447414401858,4.16333634234434E-17,0.000419239884026026));
#530=CARTESIAN_POINT('',(0.00500276292799068,0.12,-1.29040581600852E-17));
#531=CARTESIAN_POINT('',(0.00500276292799068,4.16333634234434E-17,-1.29040581600852E-17));
#532=CARTESIAN_POINT('',(0.00499447414401858,0.12,-0.000419239884026069));
#533=CARTESIAN_POINT('',(0.00499447414401858,4.16333634234434E-17,-0.000419239884026069));
#534=CARTESIAN_POINT('',(0.00496157805072579,0.12,-0.000974188321543631));
#535=CARTESIAN_POINT('',(0.00496157805072579,4.16333634234434E-17,-0.000974188321543631));
#536=CARTESIAN_POINT('',(0.00488007798087867,0.12,-0.00165844146862878));
#537=CARTESIAN_POINT('',(0.00488007798087867,4.16333634234434E-17,-0.00165844146862878));
#538=CARTESIAN_POINT('',(0.00472032250519517,0.12,-0.0024544239167754));
#539=CARTESIAN_POINT('',(0.00472032250519517,4.16333634234434E-17,-0.0024544239167754));
#540=CARTESIAN_POINT('',(0.00450220315106999,0.12,-0.00321601822119803));
#541=CARTESIAN_POINT('',(0.00450220315106999,4.16333634234434E-17,-0.00321601822119803));
#542=CARTESIAN_POINT('',(0.00427577021299767,0.12,-0.00381426578980704));
#543=CARTESIAN_POINT('',(0.00427577021299767,4.16333634234434E-17,-0.00381426578980704));
#544=CARTESIAN_POINT('',(0.00407022138919268,0.12,-0.00426768082788102));
#545=CARTESIAN_POINT('',(0.00407022138919268,4.16333634234434E-17,-0.00426768082788102));
#546=CARTESIAN_POINT('',(0.00385104082298785,0.12,-0.00469991941494785));
#547=CARTESIAN_POINT('',(0.00385104082298785,4.16333634234434E-17,-0.00469991941494785));
#548=CARTESIAN_POINT('',(0.00355424091637509,0.12,-0.00519876235148642));
#549=CARTESIAN_POINT('',(0.00355424091637509,4.16333634234434E-17,-0.00519876235148642));
#550=CARTESIAN_POINT('',(0.00316993764110415,0.12,-0.00572741433755278));
#551=CARTESIAN_POINT('',(0.00316993764110415,4.16333634234434E-17,-0.00572741433755278));
#552=CARTESIAN_POINT('',(0.0027663065089223,0.12,-0.00618368171292602));
#553=CARTESIAN_POINT('',(0.0027663065089223,4.16333634234434E-17,-0.00618368171292602));
#554=CARTESIAN_POINT('',(0.00242108297373634,0.12,-0.00650301768138687));
#555=CARTESIAN_POINT('',(0.00242108297373634,4.16333634234434E-17,-0.00650301768138687));
#556=CARTESIAN_POINT('',(0.00214337280695642,0.12,-0.00672276319188997));
#557=CARTESIAN_POINT('',(0.00214337280695642,4.16333634234434E-17,-0.00672276319188997));
#558=CARTESIAN_POINT('',(0.00186578528080304,0.12,-0.00691911027244364));
#559=CARTESIAN_POINT('',(0.00186578528080304,4.16333634234434E-17,-0.00691911027244364));
#560=CARTESIAN_POINT('',(0.00152477409354672,0.12,-0.00711958687288022));
#561=CARTESIAN_POINT('',(0.00152477409354672,4.16333634234434E-17,-0.00711958687288022));
#562=CARTESIAN_POINT('',(0.00112760726440284,0.12,-0.0072961766234423));
#563=CARTESIAN_POINT('',(0.00112760726440284,4.16333634234434E-17,-0.0072961766234423));
#564=CARTESIAN_POINT('',(0.000743329519109258,0.12,-0.00741581971293415));
#565=CARTESIAN_POINT('',(0.000743329519109258,4.16333634234434E-17,-0.00741581971293415));
#566=CARTESIAN_POINT('',(0.00043172523456982,0.12,-0.00747337888606692));
#567=CARTESIAN_POINT('',(0.00043172523456982,4.16333634234434E-17,-0.00747337888606692));
#568=CARTESIAN_POINT('',(0.000184972278542792,0.12,-0.0074961998375349));
#569=CARTESIAN_POINT('',(0.000184972278542792,4.16333634234434E-17,-0.0074961998375349));
#570=CARTESIAN_POINT('',(6.16574261809411E-5,0.12,-0.0075));
#571=CARTESIAN_POINT('',(6.16574261809411E-5,4.16333634234434E-17,-0.0075));
#572=CARTESIAN_POINT('',(-6.7762635780344E-21,0.12,-0.0075));
#573=CARTESIAN_POINT('',(-6.7762635780344E-21,4.16333634234434E-17,-0.0075));
#574=CARTESIAN_POINT('',(-6.7762635780344E-21,0.12,-0.0075));
#575=CARTESIAN_POINT('',(-6.16574261809412E-5,0.12,-0.0075));
#576=CARTESIAN_POINT('',(-0.000184972278542854,0.12,-0.00749619983753492));
#577=CARTESIAN_POINT('',(-0.000431725234569839,0.12,-0.00747337888606692));
#578=CARTESIAN_POINT('',(-0.000743329519109292,0.12,-0.00741581971293416));
#579=CARTESIAN_POINT('',(-0.00112760726440284,0.12,-0.00729617662344231));
#580=CARTESIAN_POINT('',(-0.00152477409354673,0.12,-0.00711958687288023));
#581=CARTESIAN_POINT('',(-0.00186578528080305,0.12,-0.00691911027244365));
#582=CARTESIAN_POINT('',(-0.00214337280695644,0.12,-0.00672276319188997));
#583=CARTESIAN_POINT('',(-0.00242108297373636,0.12,-0.00650301768138685));
#584=CARTESIAN_POINT('',(-0.00276630650892232,0.12,-0.00618368171292603));
#585=CARTESIAN_POINT('',(-0.00316993764110417,0.12,-0.00572741433755277));
#586=CARTESIAN_POINT('',(-0.00355424091637512,0.12,-0.00519876235148641));
#587=CARTESIAN_POINT('',(-0.00385104082298788,0.12,-0.00469991941494784));
#588=CARTESIAN_POINT('',(-0.0040702213891927,0.12,-0.00426768082788101));
#589=CARTESIAN_POINT('',(-0.00427577021299769,0.12,-0.00381426578980701));
#590=CARTESIAN_POINT('',(-0.00450220315107,0.12,-0.00321601822119803));
#591=CARTESIAN_POINT('',(-0.00472032250519518,0.12,-0.00245442391677538));
#592=CARTESIAN_POINT('',(-0.00488007798087868,0.12,-0.00165844146862877));
#593=CARTESIAN_POINT('',(-0.0049615780507258,0.12,-0.000974188321543623));
#594=CARTESIAN_POINT('',(-0.00499447414401859,0.12,-0.00041923988402606));
#595=CARTESIAN_POINT('',(-0.00500276292799069,0.12,3.99045481085661E-18));
#596=CARTESIAN_POINT('',(-0.0049944741440186,0.12,0.000419239884026048));
#597=CARTESIAN_POINT('',(-0.0049615780507258,0.12,0.000974188321543626));
#598=CARTESIAN_POINT('',(-0.00488007798087869,0.12,0.00165844146862876));
#599=CARTESIAN_POINT('',(-0.00472032250519518,0.12,0.00245442391677539));
#600=CARTESIAN_POINT('',(-0.00450220315107001,0.12,0.00321601822119802));
#601=CARTESIAN_POINT('',(-0.00427577021299769,0.12,0.00381426578980702));
#602=CARTESIAN_POINT('',(-0.0040702213891927,0.12,0.004267680827881));
#603=CARTESIAN_POINT('',(-0.00385104082298787,0.12,0.00469991941494784));
#604=CARTESIAN_POINT('',(-0.00355424091637511,0.12,0.0051987623514864));
#605=CARTESIAN_POINT('',(-0.00316993764110415,0.12,0.00572741433755278));
#606=CARTESIAN_POINT('',(-0.00276630650892233,0.12,0.00618368171292601));
#607=CARTESIAN_POINT('',(-0.00242108297373634,0.12,0.00650301768138687));
#608=CARTESIAN_POINT('',(-0.00214337280695646,0.12,0.00672276319188995));
#609=CARTESIAN_POINT('',(-0.00186578528080306,0.12,0.00691911027244364));
#610=CARTESIAN_POINT('',(-0.00152477409354674,0.12,0.00711958687288021));
#611=CARTESIAN_POINT('',(-0.00112760726440286,0.12,0.00729617662344229));
#612=CARTESIAN_POINT('',(-0.000743329519109296,0.12,0.00741581971293414));
#613=CARTESIAN_POINT('',(-0.00043172523456985,0.12,0.0074733788860669));
#614=CARTESIAN_POINT('',(-0.000184972278542848,0.12,0.0074961998375349));
#615=CARTESIAN_POINT('',(8.22285275045512E-18,0.12,0.00750190008123252));
#616=CARTESIAN_POINT('',(0.000184972278542856,0.12,0.00749619983753489));
#617=CARTESIAN_POINT('',(0.000431725234569845,0.12,0.00747337888606691));
#618=CARTESIAN_POINT('',(0.000743329519109315,0.12,0.00741581971293413));
#619=CARTESIAN_POINT('',(0.00112760726440286,0.12,0.00729617662344229));
#620=CARTESIAN_POINT('',(0.00152477409354675,0.12,0.00711958687288021));
#621=CARTESIAN_POINT('',(0.00186578528080304,0.12,0.00691911027244364));
#622=CARTESIAN_POINT('',(0.00214337280695645,0.12,0.00672276319188995));
#623=CARTESIAN_POINT('',(0.00242108297373635,0.12,0.00650301768138685));
#624=CARTESIAN_POINT('',(0.00276630650892232,0.12,0.00618368171292601));
#625=CARTESIAN_POINT('',(0.00316993764110416,0.12,0.00572741433755277));
#626=CARTESIAN_POINT('',(0.00355424091637511,0.12,0.0051987623514864));
#627=CARTESIAN_POINT('',(0.00385104082298787,0.12,0.00469991941494782));
#628=CARTESIAN_POINT('',(0.00407022138919269,0.12,0.004267680827881));
#629=CARTESIAN_POINT('',(0.00427577021299769,0.12,0.00381426578980698));
#630=CARTESIAN_POINT('',(0.00450220315107,0.12,0.003216018221198));
#631=CARTESIAN_POINT('',(0.00472032250519518,0.12,0.00245442391677535));
#632=CARTESIAN_POINT('',(0.00488007798087868,0.12,0.00165844146862875));
#633=CARTESIAN_POINT('',(0.00496157805072579,0.12,0.000974188321543604));
#634=CARTESIAN_POINT('',(0.00499447414401858,0.12,0.000419239884026026));
#635=CARTESIAN_POINT('',(0.00500276292799068,0.12,-1.29040581600852E-17));
#636=CARTESIAN_POINT('',(0.00499447414401858,0.12,-0.000419239884026069));
#637=CARTESIAN_POINT('',(0.00496157805072579,0.12,-0.000974188321543631));
#638=CARTESIAN_POINT('',(0.00488007798087867,0.12,-0.00165844146862878));
#639=CARTESIAN_POINT('',(0.00472032250519517,0.12,-0.0024544239167754));
#640=CARTESIAN_POINT('',(0.00450220315106999,0.12,-0.00321601822119803));
#641=CARTESIAN_POINT('',(0.00427577021299767,0.12,-0.00381426578980704));
#642=CARTESIAN_POINT('',(0.00407022138919268,0.12,-0.00426768082788102));
#643=CARTESIAN_POINT('',(0.00385104082298785,0.12,-0.00469991941494785));
#644=CARTESIAN_POINT('',(0.00355424091637509,0.12,-0.00519876235148642));
#645=CARTESIAN_POINT('',(0.00316993764110415,0.12,-0.00572741433755278));
#646=CARTESIAN_POINT('',(0.0027663065089223,0.12,-0.00618368171292602));
#647=CARTESIAN_POINT('',(0.00242108297373634,0.12,-0.00650301768138687));
#648=CARTESIAN_POINT('',(0.00214337280695642,0.12,-0.00672276319188997));
#649=CARTESIAN_POINT('',(0.00186578528080304,0.12,-0.00691911027244364));
#650=CARTESIAN_POINT('',(0.00152477409354672,0.12,-0.00711958687288022));
#651=CARTESIAN_POINT('',(0.00112760726440284,0.12,-0.0072961766234423));
#652=CARTESIAN_POINT('',(0.000743329519109258,0.12,-0.00741581971293415));
#653=CARTESIAN_POINT('',(0.00043172523456982,0.12,-0.00747337888606692));
#654=CARTESIAN_POINT('',(0.000184972278542792,0.12,-0.0074961998375349));
#655=CARTESIAN_POINT('',(6.16574261809411E-5,0.12,-0.0075));
#656=CARTESIAN_POINT('',(-6.7762635780344E-21,0.12,-0.0075));
#657=CARTESIAN_POINT('',(-6.7762635780344E-21,0.12,-0.0075));
#658=CARTESIAN_POINT('',(-6.7762635780344E-21,0.,-0.0075));
#659=CARTESIAN_POINT('',(-6.16574261809412E-5,0.,-0.0075));
#660=CARTESIAN_POINT('',(-0.000184972278542854,0.,-0.00749619983753492));
#661=CARTESIAN_POINT('',(-0.000431725234569839,0.,-0.00747337888606692));
#662=CARTESIAN_POINT('',(-0.000743329519109292,0.,-0.00741581971293416));
#663=CARTESIAN_POINT('',(-0.00112760726440284,0.,-0.00729617662344231));
#664=CARTESIAN_POINT('',(-0.00152477409354673,0.,-0.00711958687288023));
#665=CARTESIAN_POINT('',(-0.00186578528080305,0.,-0.00691911027244365));
#666=CARTESIAN_POINT('',(-0.00214337280695644,0.,-0.00672276319188997));
#667=CARTESIAN_POINT('',(-0.00242108297373636,0.,-0.00650301768138685));
#668=CARTESIAN_POINT('',(-0.00276630650892232,0.,-0.00618368171292603));
#669=CARTESIAN_POINT('',(-0.00316993764110417,0.,-0.00572741433755277));
#670=CARTESIAN_POINT('',(-0.00355424091637512,0.,-0.00519876235148641));
#671=CARTESIAN_POINT('',(-0.00385104082298788,0.,-0.00469991941494784));
#672=CARTESIAN_POINT('',(-0.0040702213891927,0.,-0.00426768082788101));
#673=CARTESIAN_POINT('',(-0.00427577021299769,0.,-0.00381426578980701));
#674=CARTESIAN_POINT('',(-0.00450220315107,0.,-0.00321601822119803));
#675=CARTESIAN_POINT('',(-0.00472032250519518,0.,-0.00245442391677538));
#676=CARTESIAN_POINT('',(-0.00488007798087868,0.,-0.00165844146862877));
#677=CARTESIAN_POINT('',(-0.0049615780507258,0.,-0.000974188321543623));
#678=CARTESIAN_POINT('',(-0.00499447414401859,0.,-0.00041923988402606));
#679=CARTESIAN_POINT('',(-0.00500276292799069,0.,3.99045481085661E-18));
#680=CARTESIAN_POINT('',(-0.0049944741440186,0.,0.000419239884026048));
#681=CARTESIAN_POINT('',(-0.0049615780507258,0.,0.000974188321543626));
#682=CARTESIAN_POINT('',(-0.00488007798087869,0.,0.00165844146862876));
#683=CARTESIAN_POINT('',(-0.00472032250519518,0.,0.00245442391677539));
#684=CARTESIAN_POINT('',(-0.00450220315107001,0.,0.00321601822119802));
#685=CARTESIAN_POINT('',(-0.00427577021299769,0.,0.00381426578980702));
#686=CARTESIAN_POINT('',(-0.0040702213891927,0.,0.004267680827881));
#687=CARTESIAN_POINT('',(-0.00385104082298787,0.,0.00469991941494784));
#688=CARTESIAN_POINT('',(-0.00355424091637511,0.,0.0051987623514864));
#689=CARTESIAN_POINT('',(-0.00316993764110415,0.,0.00572741433755278));
#690=CARTESIAN_POINT('',(-0.00276630650892233,0.,0.00618368171292601));
#691=CARTESIAN_POINT('',(-0.00242108297373634,0.,0.00650301768138687));
#692=CARTESIAN_POINT('',(-0.00214337280695646,0.,0.00672276319188995));
#693=CARTESIAN_POINT('',(-0.00186578528080306,0.,0.00691911027244364));
#694=CARTESIAN_POINT('',(-0.00152477409354674,0.,0.00711958687288021));
#695=CARTESIAN_POINT('',(-0.00112760726440286,0.,0.00729617662344229));
#696=CARTESIAN_POINT('',(-0.000743329519109296,0.,0.00741581971293414));
#697=CARTESIAN_POINT('',(-0.00043172523456985,0.,0.0074733788860669));
#698=CARTESIAN_POINT('',(-0.000184972278542848,0.,0.0074961998375349));
#699=CARTESIAN_POINT('',(8.22285275045512E-18,0.,0.00750190008123252));
#700=CARTESIAN_POINT('',(0.000184972278542856,0.,0.00749619983753489));
#701=CARTESIAN_POINT('',(0.000431725234569845,0.,0.00747337888606691));
#702=CARTESIAN_POINT('',(0.000743329519109315,0.,0.00741581971293413));
#703=CARTESIAN_POINT('',(0.00112760726440286,0.,0.00729617662344229));
#704=CARTESIAN_POINT('',(0.00152477409354675,0.,0.00711958687288021));
#705=CARTESIAN_POINT('',(0.00186578528080304,0.,0.00691911027244364));
#706=CARTESIAN_POINT('',(0.00214337280695645,0.,0.00672276319188995));
#707=CARTESIAN_POINT('',(0.00242108297373635,0.,0.00650301768138685));
#708=CARTESIAN_POINT('',(0.00276630650892232,0.,0.00618368171292601));
#709=CARTESIAN_POINT('',(0.00316993764110416,0.,0.00572741433755277));
#710=CARTESIAN_POINT('',(0.00355424091637511,0.,0.0051987623514864));
#711=CARTESIAN_POINT('',(0.00385104082298787,0.,0.00469991941494782));
#712=CARTESIAN_POINT('',(0.00407022138919269,0.,0.004267680827881));
#713=CARTESIAN_POINT('',(0.00427577021299769,0.,0.00381426578980698));
#714=CARTESIAN_POINT('',(0.00450220315107,0.,0.003216018221198));
#715=CARTESIAN_POINT('',(0.00472032250519518,0.,0.00245442391677535));
#716=CARTESIAN_POINT('',(0.00488007798087868,0.,0.00165844146862875));
#717=CARTESIAN_POINT('',(0.00496157805072579,0.,0.000974188321543604));
#718=CARTESIAN_POINT('',(0.00499447414401858,0.,0.000419239884026026));
#719=CARTESIAN_POINT('',(0.00500276292799068,0.,-1.29040581600852E-17));
#720=CARTESIAN_POINT('',(0.00499447414401858,0.,-0.000419239884026069));
#721=CARTESIAN_POINT('',(0.00496157805072579,0.,-0.000974188321543631));
#722=CARTESIAN_POINT('',(0.00488007798087867,0.,-0.00165844146862878));
#723=CARTESIAN_POINT('',(0.00472032250519517,0.,-0.0024544239167754));
#724=CARTESIAN_POINT('',(0.00450220315106999,0.,-0.00321601822119803));
#725=CARTESIAN_POINT('',(0.00427577021299767,0.,-0.00381426578980704));
#726=CARTESIAN_POINT('',(0.00407022138919268,0.,-0.00426768082788102));
#727=CARTESIAN_POINT('',(0.00385104082298785,0.,-0.00469991941494785));
#728=CARTESIAN_POINT('',(0.00355424091637509,0.,-0.00519876235148642));
#729=CARTESIAN_POINT('',(0.00316993764110415,0.,-0.00572741433755278));
#730=CARTESIAN_POINT('',(0.0027663065089223,0.,-0.00618368171292602));
#731=CARTESIAN_POINT('',(0.00242108297373634,0.,-0.00650301768138687));
#732=CARTESIAN_POINT('',(0.00214337280695642,0.,-0.00672276319188997));
#733=CARTESIAN_POINT('',(0.00186578528080304,0.,-0.00691911027244364));
#734=CARTESIAN_POINT('',(0.00152477409354672,0.,-0.00711958687288022));
#735=CARTESIAN_POINT('',(0.00112760726440284,0.,-0.0072961766234423));
#736=CARTESIAN_POINT('',(0.000743329519109258,0.,-0.00741581971293415));
#737=CARTESIAN_POINT('',(0.00043172523456982,0.,-0.00747337888606692));
#738=CARTESIAN_POINT('',(0.000184972278542792,0.,-0.0074961998375349));
#739=CARTESIAN_POINT('',(6.16574261809411E-5,0.,-0.0075));
#740=CARTESIAN_POINT('',(-6.7762635780344E-21,0.,-0.0075));
#741=CARTESIAN_POINT('',(-6.7762635780344E-21,0.,-0.0075));
#742=CARTESIAN_POINT('',(0.00392646237414996,0.12,-0.0118491483947756));
#743=CARTESIAN_POINT('',(0.00392646237414996,4.16333634234434E-17,-0.0118491483947756));
#744=CARTESIAN_POINT('',(-7.58941520739853E-19,0.12,-0.0128254258026122));
#745=CARTESIAN_POINT('',(-7.58941520739853E-19,-2.77555756156289E-17,-0.0128254258026122));
#746=CARTESIAN_POINT('',(-0.00392646237414994,0.12,-0.0118491483947756));
#747=CARTESIAN_POINT('',(-0.00392646237414994,1.38777878078145E-17,-0.0118491483947756));
#748=CARTESIAN_POINT('',(-0.00725515644530561,0.12,-0.00906894555663202));
#749=CARTESIAN_POINT('',(-0.00725515644530561,-1.38777878078145E-17,-0.00906894555663202));
#750=CARTESIAN_POINT('',(-0.00947931871582046,0.12,-0.00490807796768742));
#751=CARTESIAN_POINT('',(-0.00947931871582046,2.77555756156289E-17,-0.00490807796768742));
#752=CARTESIAN_POINT('',(-0.0102603406420898,0.12,-4.72305571388998E-18));
#753=CARTESIAN_POINT('',(-0.0102603406420898,0.,-4.72305571388998E-18));
#754=CARTESIAN_POINT('',(-0.00947931871582046,0.12,0.00490807796768743));
#755=CARTESIAN_POINT('',(-0.00947931871582046,2.77555756156289E-17,0.00490807796768743));
#756=CARTESIAN_POINT('',(-0.0072551564453056,0.12,0.00906894555663203));
#757=CARTESIAN_POINT('',(-0.0072551564453056,0.,0.00906894555663203));
#758=CARTESIAN_POINT('',(-0.00392646237414997,0.12,0.0118491483947756));
#759=CARTESIAN_POINT('',(-0.00392646237414997,1.38777878078145E-17,0.0118491483947756));
#760=CARTESIAN_POINT('',(1.17176354166343E-17,0.12,0.0128254258026122));
#761=CARTESIAN_POINT('',(1.17176354166343E-17,0.,0.0128254258026122));
#762=CARTESIAN_POINT('',(0.00392646237414992,0.12,0.0118491483947756));
#763=CARTESIAN_POINT('',(0.00392646237414992,2.77555756156289E-17,0.0118491483947756));
#764=CARTESIAN_POINT('',(0.00725515644530563,0.12,0.009068945556632));
#765=CARTESIAN_POINT('',(0.00725515644530563,0.,0.009068945556632));
#766=CARTESIAN_POINT('',(0.00947931871582044,0.12,0.00490807796768747));
#767=CARTESIAN_POINT('',(0.00947931871582044,4.16333634234434E-17,0.00490807796768747));
#768=CARTESIAN_POINT('',(0.0102603406420898,0.12,-4.83079830478073E-17));
#769=CARTESIAN_POINT('',(0.0102603406420898,-1.38777878078145E-17,-4.83079830478073E-17));
#770=CARTESIAN_POINT('',(0.00947931871582046,0.12,-0.00490807796768739));
#771=CARTESIAN_POINT('',(0.00947931871582046,4.16333634234434E-17,-0.00490807796768739));
#772=CARTESIAN_POINT('',(0.00725515644530564,0.12,-0.00906894555663199));
#773=CARTESIAN_POINT('',(0.00725515644530564,0.,-0.00906894555663199));
#774=CARTESIAN_POINT('',(0.00392646237414996,0.12,-0.0118491483947756));
#775=CARTESIAN_POINT('',(0.00392646237414996,4.16333634234434E-17,-0.0118491483947756));
#776=CARTESIAN_POINT('',(-7.58941520739853E-19,0.12,-0.0128254258026122));
#777=CARTESIAN_POINT('',(-7.58941520739853E-19,-2.77555756156289E-17,-0.0128254258026122));
#778=CARTESIAN_POINT('',(-0.00392646237414994,0.12,-0.0118491483947756));
#779=CARTESIAN_POINT('',(-0.00392646237414994,1.38777878078145E-17,-0.0118491483947756));
#780=CARTESIAN_POINT('',(0.,0.12,0.));
#781=CARTESIAN_POINT('',(0.,0.12,-0.0125));
#782=CARTESIAN_POINT('',(0.,0.,0.));
#783=CARTESIAN_POINT('',(0.,0.,-0.0125));
#784=CARTESIAN_POINT('',(0.,0.12,0.));
#785=CARTESIAN_POINT('',(0.,0.12,-0.0098084406927228));
#786=CARTESIAN_POINT('',(-0.0015,0.12,-0.0098084406927228));
#787=CARTESIAN_POINT('',(0.00601188326254487,0.12,-0.0059837969020009));
#788=CARTESIAN_POINT('',(0.00451188326254487,0.12,-0.0059837969020009));
#789=CARTESIAN_POINT('',(-0.00601188326254487,0.12,-0.0059837969020009));
#790=CARTESIAN_POINT('',(-0.00751188326254487,0.12,-0.0059837969020009));
#791=CARTESIAN_POINT('',(0.,0.12,0.0098084406927228));
#792=CARTESIAN_POINT('',(-0.0015,0.12,0.0098084406927228));
#793=CARTESIAN_POINT('',(0.,0.,0.));
#794=CARTESIAN_POINT('',(0.,0.117,0.0098084406927228));
#795=CARTESIAN_POINT('',(0.,0.116098709071459,0.0098084406927228));
#796=CARTESIAN_POINT('',(0.,0.117,0.0098084406927228));
#797=CARTESIAN_POINT('',(-0.0015,0.117,0.0098084406927228));
#798=CARTESIAN_POINT('',(0.,0.12,0.0098084406927228));
#799=CARTESIAN_POINT('',(-0.00601188326254487,0.117,-0.0059837969020009));
#800=CARTESIAN_POINT('',(-0.00601188326254487,0.116098709071459,-0.0059837969020009));
#801=CARTESIAN_POINT('',(-0.00601188326254487,0.117,-0.0059837969020009));
#802=CARTESIAN_POINT('',(-0.00751188326254487,0.117,-0.0059837969020009));
#803=CARTESIAN_POINT('',(-0.00601188326254487,0.12,-0.0059837969020009));
#804=CARTESIAN_POINT('',(0.00601188326254487,0.117,-0.0059837969020009));
#805=CARTESIAN_POINT('',(0.00601188326254487,0.116098709071459,-0.0059837969020009));
#806=CARTESIAN_POINT('',(0.00601188326254487,0.117,-0.0059837969020009));
#807=CARTESIAN_POINT('',(0.00451188326254487,0.117,-0.0059837969020009));
#808=CARTESIAN_POINT('',(0.00601188326254487,0.12,-0.0059837969020009));
#809=CARTESIAN_POINT('',(0.,0.117,-0.0098084406927228));
#810=CARTESIAN_POINT('',(0.,0.116098709071459,-0.0098084406927228));
#811=CARTESIAN_POINT('',(0.,0.117,-0.0098084406927228));
#812=CARTESIAN_POINT('',(-0.0015,0.117,-0.0098084406927228));
#813=CARTESIAN_POINT('',(0.,0.12,-0.0098084406927228));
#814=MECHANICAL_DESIGN_GEOMETRIC_PRESENTATION_REPRESENTATION('',(#257),
#815);
#815=(
GEOMETRIC_REPRESENTATION_CONTEXT(3)
GLOBAL_UNCERTAINTY_ASSIGNED_CONTEXT((#816))
GLOBAL_UNIT_ASSIGNED_CONTEXT((#819,#818,#817))
REPRESENTATION_CONTEXT('Part 1','TOP_LEVEL_ASSEMBLY_PART')
);
#816=UNCERTAINTY_MEASURE_WITH_UNIT(LENGTH_MEASURE(2.E-5),#819,
'DISTANCE_ACCURACY_VALUE','Maximum Tolerance applied to model');
#817=(
NAMED_UNIT(*)
SI_UNIT($,.STERADIAN.)
SOLID_ANGLE_UNIT()
);
#818=(
NAMED_UNIT(*)
PLANE_ANGLE_UNIT()
SI_UNIT($,.RADIAN.)
);
#819=(
LENGTH_UNIT()
NAMED_UNIT(*)
SI_UNIT($,.METRE.)
);
#820=PRODUCT_DEFINITION_SHAPE('','',#821);
#821=PRODUCT_DEFINITION('','',#823,#822);
#822=PRODUCT_DEFINITION_CONTEXT('',#829,'design');
#823=PRODUCT_DEFINITION_FORMATION_WITH_SPECIFIED_SOURCE('','',#825,
 .NOT_KNOWN.);
#824=PRODUCT_RELATED_PRODUCT_CATEGORY('','',(#825));
#825=PRODUCT('Part 1','Part 1','Part 1',(#827));
#826=PRODUCT_CATEGORY('','');
#827=PRODUCT_CONTEXT('',#829,'mechanical');
#828=APPLICATION_PROTOCOL_DEFINITION('international standard',
'ap242_managed_model_based_3d_engineering',2020,#829);
#829=APPLICATION_CONTEXT('managed model based 3d engineering');
ENDSEC;
END-ISO-10303-21;
