ISO-10303-21;
HEADER;
/* Generated by software containing ST-Developer
 * from STEP Tools, Inc. (www.steptools.com) 
 */
/* OPTION: using custom renumber hook */

FILE_DESCRIPTION(
/* description */ ('STEP AP242 Edition 2',
'CAx-IF Rec.Pracs.---Representation and Presentation of Product Manufa
cturing Information (PMI)---4.0---2014-10-13',
'CAx-IF Rec.Pracs.---3D Tessellated Geometry---0.4---2014-09-14','2;1',
'CAx-IF Rec.Pracs.---User Defined Attributes---1.5---2016-08-15'),
/* implementation_level */ '2;1');

FILE_NAME(
/* name */ 'TrussArm',
/* time_stamp */ '2026-08-07T03:14:41Z',
/* author */ (''),
/* organization */ (''),
/* preprocessor_version */ 'ST-DEVELOPER v20',
/* originating_system */ 'ONSHAPE BY PTC INC, 1.218',
/* authorisation */ '  ');

FILE_SCHEMA (('AP242_MANAGED_MODEL_BASED_3D_ENGINEERING_MIM_LF { 1 0 10303 442 3 1 4 }'));
ENDSEC;

DATA;
#10=SHAPE_REPRESENTATION_RELATIONSHIP('','',#760,#11);
#11=ADVANCED_BREP_SHAPE_REPRESENTATION('',(#758),#1228);
#12=VERTEX_LOOP('',#393);
#13=VERTEX_LOOP('',#395);
#14=VERTEX_LOOP('',#397);
#15=VERTEX_LOOP('',#399);
#16=VERTEX_LOOP('',#401);
#17=VERTEX_LOOP('',#403);
#18=CONICAL_SURFACE('',#805,0.0015,1.02974425867665);
#19=CONICAL_SURFACE('',#808,0.0015,1.02974425867665);
#20=CONICAL_SURFACE('',#811,0.0015,1.02974425867665);
#21=CONICAL_SURFACE('',#814,0.0015,1.02974425867665);
#22=CONICAL_SURFACE('',#817,0.0015,1.02974425867665);
#23=CONICAL_SURFACE('',#820,0.0015,1.02974425867665);
#24=CYLINDRICAL_SURFACE('',#797,0.003);
#25=CYLINDRICAL_SURFACE('',#798,0.003);
#26=CYLINDRICAL_SURFACE('',#802,0.003);
#27=CYLINDRICAL_SURFACE('',#803,0.003);
#28=CYLINDRICAL_SURFACE('',#807,0.0015);
#29=CYLINDRICAL_SURFACE('',#810,0.0015);
#30=CYLINDRICAL_SURFACE('',#813,0.0015);
#31=CYLINDRICAL_SURFACE('',#816,0.0015);
#32=CYLINDRICAL_SURFACE('',#819,0.0015);
#33=CYLINDRICAL_SURFACE('',#822,0.0015);
#34=CIRCLE('',#781,0.0015);
#35=CIRCLE('',#782,0.0015);
#36=CIRCLE('',#784,0.0015);
#37=CIRCLE('',#785,0.0015);
#38=CIRCLE('',#786,0.0015);
#39=CIRCLE('',#787,0.0015);
#40=CIRCLE('',#788,0.003);
#41=CIRCLE('',#789,0.003);
#42=CIRCLE('',#790,0.003);
#43=CIRCLE('',#791,0.003);
#44=CIRCLE('',#795,0.003);
#45=CIRCLE('',#796,0.003);
#46=CIRCLE('',#800,0.003);
#47=CIRCLE('',#801,0.003);
#48=CIRCLE('',#806,0.0015);
#49=CIRCLE('',#809,0.0015);
#50=CIRCLE('',#812,0.0015);
#51=CIRCLE('',#815,0.0015);
#52=CIRCLE('',#818,0.0015);
#53=CIRCLE('',#821,0.0015);
#54=ORIENTED_EDGE('',*,*,#240,.T.);
#55=ORIENTED_EDGE('',*,*,#241,.T.);
#56=ORIENTED_EDGE('',*,*,#242,.F.);
#57=ORIENTED_EDGE('',*,*,#243,.T.);
#58=ORIENTED_EDGE('',*,*,#244,.T.);
#59=ORIENTED_EDGE('',*,*,#245,.T.);
#60=ORIENTED_EDGE('',*,*,#246,.T.);
#61=ORIENTED_EDGE('',*,*,#247,.T.);
#62=ORIENTED_EDGE('',*,*,#248,.F.);
#63=ORIENTED_EDGE('',*,*,#249,.F.);
#64=ORIENTED_EDGE('',*,*,#250,.F.);
#65=ORIENTED_EDGE('',*,*,#251,.F.);
#66=ORIENTED_EDGE('',*,*,#252,.F.);
#67=ORIENTED_EDGE('',*,*,#253,.F.);
#68=ORIENTED_EDGE('',*,*,#254,.F.);
#69=ORIENTED_EDGE('',*,*,#255,.F.);
#70=ORIENTED_EDGE('',*,*,#256,.F.);
#71=ORIENTED_EDGE('',*,*,#257,.F.);
#72=ORIENTED_EDGE('',*,*,#258,.F.);
#73=ORIENTED_EDGE('',*,*,#259,.F.);
#74=ORIENTED_EDGE('',*,*,#260,.F.);
#75=ORIENTED_EDGE('',*,*,#261,.F.);
#76=ORIENTED_EDGE('',*,*,#262,.F.);
#77=ORIENTED_EDGE('',*,*,#263,.F.);
#78=ORIENTED_EDGE('',*,*,#257,.T.);
#79=ORIENTED_EDGE('',*,*,#264,.T.);
#80=ORIENTED_EDGE('',*,*,#265,.F.);
#81=ORIENTED_EDGE('',*,*,#266,.F.);
#82=ORIENTED_EDGE('',*,*,#267,.F.);
#83=ORIENTED_EDGE('',*,*,#264,.F.);
#84=ORIENTED_EDGE('',*,*,#259,.T.);
#85=ORIENTED_EDGE('',*,*,#268,.F.);
#86=ORIENTED_EDGE('',*,*,#269,.F.);
#87=ORIENTED_EDGE('',*,*,#270,.F.);
#88=ORIENTED_EDGE('',*,*,#250,.T.);
#89=ORIENTED_EDGE('',*,*,#271,.F.);
#90=ORIENTED_EDGE('',*,*,#248,.T.);
#91=ORIENTED_EDGE('',*,*,#270,.T.);
#92=ORIENTED_EDGE('',*,*,#272,.F.);
#93=ORIENTED_EDGE('',*,*,#273,.F.);
#94=ORIENTED_EDGE('',*,*,#274,.F.);
#95=ORIENTED_EDGE('',*,*,#275,.F.);
#96=ORIENTED_EDGE('',*,*,#262,.T.);
#97=ORIENTED_EDGE('',*,*,#276,.F.);
#98=ORIENTED_EDGE('',*,*,#277,.F.);
#99=ORIENTED_EDGE('',*,*,#278,.F.);
#100=ORIENTED_EDGE('',*,*,#253,.T.);
#101=ORIENTED_EDGE('',*,*,#279,.F.);
#102=ORIENTED_EDGE('',*,*,#254,.T.);
#103=ORIENTED_EDGE('',*,*,#280,.F.);
#104=ORIENTED_EDGE('',*,*,#281,.F.);
#105=ORIENTED_EDGE('',*,*,#282,.F.);
#106=ORIENTED_EDGE('',*,*,#283,.F.);
#107=ORIENTED_EDGE('',*,*,#284,.F.);
#108=ORIENTED_EDGE('',*,*,#285,.F.);
#109=ORIENTED_EDGE('',*,*,#286,.F.);
#110=ORIENTED_EDGE('',*,*,#287,.F.);
#111=ORIENTED_EDGE('',*,*,#288,.F.);
#112=ORIENTED_EDGE('',*,*,#289,.T.);
#113=ORIENTED_EDGE('',*,*,#290,.T.);
#114=ORIENTED_EDGE('',*,*,#272,.T.);
#115=ORIENTED_EDGE('',*,*,#269,.T.);
#116=ORIENTED_EDGE('',*,*,#291,.T.);
#117=ORIENTED_EDGE('',*,*,#292,.T.);
#118=ORIENTED_EDGE('',*,*,#277,.T.);
#119=ORIENTED_EDGE('',*,*,#293,.T.);
#120=ORIENTED_EDGE('',*,*,#281,.T.);
#121=ORIENTED_EDGE('',*,*,#294,.T.);
#122=ORIENTED_EDGE('',*,*,#267,.T.);
#123=ORIENTED_EDGE('',*,*,#295,.T.);
#124=ORIENTED_EDGE('',*,*,#265,.T.);
#125=ORIENTED_EDGE('',*,*,#296,.T.);
#126=ORIENTED_EDGE('',*,*,#297,.T.);
#127=ORIENTED_EDGE('',*,*,#274,.T.);
#128=ORIENTED_EDGE('',*,*,#298,.F.);
#129=ORIENTED_EDGE('',*,*,#260,.T.);
#130=ORIENTED_EDGE('',*,*,#275,.T.);
#131=ORIENTED_EDGE('',*,*,#297,.F.);
#132=ORIENTED_EDGE('',*,*,#296,.F.);
#133=ORIENTED_EDGE('',*,*,#273,.T.);
#134=ORIENTED_EDGE('',*,*,#261,.T.);
#135=ORIENTED_EDGE('',*,*,#298,.T.);
#136=ORIENTED_EDGE('',*,*,#299,.F.);
#137=ORIENTED_EDGE('',*,*,#294,.F.);
#138=ORIENTED_EDGE('',*,*,#280,.T.);
#139=ORIENTED_EDGE('',*,*,#256,.T.);
#140=ORIENTED_EDGE('',*,*,#258,.T.);
#141=ORIENTED_EDGE('',*,*,#263,.T.);
#142=ORIENTED_EDGE('',*,*,#295,.F.);
#143=ORIENTED_EDGE('',*,*,#266,.T.);
#144=ORIENTED_EDGE('',*,*,#255,.T.);
#145=ORIENTED_EDGE('',*,*,#279,.T.);
#146=ORIENTED_EDGE('',*,*,#293,.F.);
#147=ORIENTED_EDGE('',*,*,#299,.T.);
#148=ORIENTED_EDGE('',*,*,#300,.F.);
#149=ORIENTED_EDGE('',*,*,#251,.T.);
#150=ORIENTED_EDGE('',*,*,#278,.T.);
#151=ORIENTED_EDGE('',*,*,#292,.F.);
#152=ORIENTED_EDGE('',*,*,#291,.F.);
#153=ORIENTED_EDGE('',*,*,#276,.T.);
#154=ORIENTED_EDGE('',*,*,#252,.T.);
#155=ORIENTED_EDGE('',*,*,#300,.T.);
#156=ORIENTED_EDGE('',*,*,#290,.F.);
#157=ORIENTED_EDGE('',*,*,#268,.T.);
#158=ORIENTED_EDGE('',*,*,#249,.T.);
#159=ORIENTED_EDGE('',*,*,#271,.T.);
#160=ORIENTED_EDGE('',*,*,#247,.F.);
#161=ORIENTED_EDGE('',*,*,#301,.T.);
#162=ORIENTED_EDGE('',*,*,#284,.T.);
#163=ORIENTED_EDGE('',*,*,#302,.F.);
#164=ORIENTED_EDGE('',*,*,#303,.T.);
#165=ORIENTED_EDGE('',*,*,#304,.T.);
#166=ORIENTED_EDGE('',*,*,#246,.F.);
#167=ORIENTED_EDGE('',*,*,#305,.T.);
#168=ORIENTED_EDGE('',*,*,#285,.T.);
#169=ORIENTED_EDGE('',*,*,#301,.F.);
#170=ORIENTED_EDGE('',*,*,#306,.T.);
#171=ORIENTED_EDGE('',*,*,#307,.T.);
#172=ORIENTED_EDGE('',*,*,#308,.T.);
#173=ORIENTED_EDGE('',*,*,#309,.T.);
#174=ORIENTED_EDGE('',*,*,#283,.T.);
#175=ORIENTED_EDGE('',*,*,#310,.T.);
#176=ORIENTED_EDGE('',*,*,#311,.T.);
#177=ORIENTED_EDGE('',*,*,#312,.T.);
#178=ORIENTED_EDGE('',*,*,#287,.T.);
#179=ORIENTED_EDGE('',*,*,#313,.F.);
#180=ORIENTED_EDGE('',*,*,#244,.F.);
#181=ORIENTED_EDGE('',*,*,#314,.T.);
#182=ORIENTED_EDGE('',*,*,#315,.F.);
#183=ORIENTED_EDGE('',*,*,#316,.T.);
#184=ORIENTED_EDGE('',*,*,#240,.F.);
#185=ORIENTED_EDGE('',*,*,#302,.T.);
#186=ORIENTED_EDGE('',*,*,#245,.F.);
#187=ORIENTED_EDGE('',*,*,#313,.T.);
#188=ORIENTED_EDGE('',*,*,#286,.T.);
#189=ORIENTED_EDGE('',*,*,#305,.F.);
#190=ORIENTED_EDGE('',*,*,#311,.F.);
#191=ORIENTED_EDGE('',*,*,#317,.F.);
#192=ORIENTED_EDGE('',*,*,#318,.T.);
#193=ORIENTED_EDGE('',*,*,#319,.T.);
#194=ORIENTED_EDGE('',*,*,#289,.F.);
#195=ORIENTED_EDGE('',*,*,#320,.F.);
#196=ORIENTED_EDGE('',*,*,#318,.F.);
#197=ORIENTED_EDGE('',*,*,#321,.F.);
#198=ORIENTED_EDGE('',*,*,#320,.T.);
#199=ORIENTED_EDGE('',*,*,#288,.T.);
#200=ORIENTED_EDGE('',*,*,#312,.F.);
#201=ORIENTED_EDGE('',*,*,#319,.F.);
#202=ORIENTED_EDGE('',*,*,#310,.F.);
#203=ORIENTED_EDGE('',*,*,#282,.T.);
#204=ORIENTED_EDGE('',*,*,#321,.T.);
#205=ORIENTED_EDGE('',*,*,#317,.T.);
#206=ORIENTED_EDGE('',*,*,#322,.F.);
#207=ORIENTED_EDGE('',*,*,#242,.T.);
#208=ORIENTED_EDGE('',*,*,#323,.F.);
#209=ORIENTED_EDGE('',*,*,#324,.T.);
#210=ORIENTED_EDGE('',*,*,#241,.F.);
#211=ORIENTED_EDGE('',*,*,#316,.F.);
#212=ORIENTED_EDGE('',*,*,#325,.F.);
#213=ORIENTED_EDGE('',*,*,#323,.T.);
#214=ORIENTED_EDGE('',*,*,#243,.F.);
#215=ORIENTED_EDGE('',*,*,#322,.T.);
#216=ORIENTED_EDGE('',*,*,#326,.T.);
#217=ORIENTED_EDGE('',*,*,#314,.F.);
#218=ORIENTED_EDGE('',*,*,#315,.T.);
#219=ORIENTED_EDGE('',*,*,#326,.F.);
#220=ORIENTED_EDGE('',*,*,#324,.F.);
#221=ORIENTED_EDGE('',*,*,#325,.T.);
#222=ORIENTED_EDGE('',*,*,#327,.F.);
#223=ORIENTED_EDGE('',*,*,#327,.T.);
#224=ORIENTED_EDGE('',*,*,#309,.F.);
#225=ORIENTED_EDGE('',*,*,#328,.F.);
#226=ORIENTED_EDGE('',*,*,#328,.T.);
#227=ORIENTED_EDGE('',*,*,#308,.F.);
#228=ORIENTED_EDGE('',*,*,#329,.F.);
#229=ORIENTED_EDGE('',*,*,#329,.T.);
#230=ORIENTED_EDGE('',*,*,#307,.F.);
#231=ORIENTED_EDGE('',*,*,#330,.F.);
#232=ORIENTED_EDGE('',*,*,#330,.T.);
#233=ORIENTED_EDGE('',*,*,#306,.F.);
#234=ORIENTED_EDGE('',*,*,#331,.F.);
#235=ORIENTED_EDGE('',*,*,#331,.T.);
#236=ORIENTED_EDGE('',*,*,#304,.F.);
#237=ORIENTED_EDGE('',*,*,#332,.F.);
#238=ORIENTED_EDGE('',*,*,#332,.T.);
#239=ORIENTED_EDGE('',*,*,#303,.F.);
#240=EDGE_CURVE('',#333,#334,#405,.T.);
#241=EDGE_CURVE('',#334,#335,#406,.F.);
#242=EDGE_CURVE('',#336,#335,#407,.T.);
#243=EDGE_CURVE('',#336,#337,#408,.T.);
#244=EDGE_CURVE('',#337,#338,#409,.T.);
#245=EDGE_CURVE('',#338,#339,#410,.T.);
#246=EDGE_CURVE('',#339,#340,#411,.T.);
#247=EDGE_CURVE('',#340,#333,#412,.T.);
#248=EDGE_CURVE('',#341,#342,#413,.T.);
#249=EDGE_CURVE('',#343,#341,#414,.T.);
#250=EDGE_CURVE('',#342,#343,#415,.T.);
#251=EDGE_CURVE('',#344,#345,#416,.T.);
#252=EDGE_CURVE('',#346,#344,#417,.T.);
#253=EDGE_CURVE('',#345,#346,#418,.T.);
#254=EDGE_CURVE('',#347,#348,#419,.T.);
#255=EDGE_CURVE('',#349,#347,#420,.T.);
#256=EDGE_CURVE('',#348,#349,#421,.T.);
#257=EDGE_CURVE('',#350,#351,#422,.T.);
#258=EDGE_CURVE('',#352,#350,#423,.T.);
#259=EDGE_CURVE('',#351,#352,#424,.T.);
#260=EDGE_CURVE('',#353,#354,#425,.T.);
#261=EDGE_CURVE('',#355,#353,#426,.T.);
#262=EDGE_CURVE('',#354,#355,#427,.T.);
#263=EDGE_CURVE('',#350,#356,#428,.T.);
#264=EDGE_CURVE('',#351,#357,#429,.T.);
#265=EDGE_CURVE('',#356,#357,#430,.T.);
#266=EDGE_CURVE('',#358,#352,#431,.T.);
#267=EDGE_CURVE('',#357,#358,#432,.T.);
#268=EDGE_CURVE('',#359,#343,#433,.T.);
#269=EDGE_CURVE('',#360,#359,#434,.T.);
#270=EDGE_CURVE('',#342,#360,#435,.T.);
#271=EDGE_CURVE('',#341,#361,#436,.T.);
#272=EDGE_CURVE('',#361,#360,#437,.T.);
#273=EDGE_CURVE('',#362,#355,#438,.T.);
#274=EDGE_CURVE('',#363,#362,#439,.T.);
#275=EDGE_CURVE('',#354,#363,#440,.T.);
#276=EDGE_CURVE('',#364,#346,#441,.T.);
#277=EDGE_CURVE('',#365,#364,#442,.T.);
#278=EDGE_CURVE('',#345,#365,#443,.T.);
#279=EDGE_CURVE('',#347,#366,#444,.T.);
#280=EDGE_CURVE('',#367,#348,#445,.T.);
#281=EDGE_CURVE('',#366,#367,#446,.T.);
#282=EDGE_CURVE('',#368,#369,#447,.F.);
#283=EDGE_CURVE('',#370,#368,#448,.T.);
#284=EDGE_CURVE('',#371,#370,#449,.T.);
#285=EDGE_CURVE('',#372,#371,#450,.T.);
#286=EDGE_CURVE('',#373,#372,#451,.T.);
#287=EDGE_CURVE('',#374,#373,#452,.T.);
#288=EDGE_CURVE('',#375,#374,#453,.T.);
#289=EDGE_CURVE('',#375,#369,#454,.T.);
#290=EDGE_CURVE('',#359,#361,#455,.T.);
#291=EDGE_CURVE('',#364,#376,#456,.T.);
#292=EDGE_CURVE('',#376,#365,#457,.T.);
#293=EDGE_CURVE('',#377,#366,#458,.T.);
#294=EDGE_CURVE('',#367,#377,#459,.T.);
#295=EDGE_CURVE('',#358,#356,#460,.T.);
#296=EDGE_CURVE('',#362,#378,#461,.T.);
#297=EDGE_CURVE('',#378,#363,#462,.T.);
#298=EDGE_CURVE('',#353,#378,#463,.T.);
#299=EDGE_CURVE('',#377,#349,#464,.T.);
#300=EDGE_CURVE('',#344,#376,#465,.T.);
#301=EDGE_CURVE('',#340,#371,#466,.T.);
#302=EDGE_CURVE('',#333,#370,#467,.T.);
#303=EDGE_CURVE('',#379,#379,#34,.T.);
#304=EDGE_CURVE('',#380,#380,#35,.T.);
#305=EDGE_CURVE('',#339,#372,#468,.T.);
#306=EDGE_CURVE('',#381,#381,#36,.T.);
#307=EDGE_CURVE('',#382,#382,#37,.T.);
#308=EDGE_CURVE('',#383,#383,#38,.T.);
#309=EDGE_CURVE('',#384,#384,#39,.T.);
#310=EDGE_CURVE('',#368,#385,#40,.T.);
#311=EDGE_CURVE('',#385,#386,#469,.T.);
#312=EDGE_CURVE('',#386,#374,#41,.T.);
#313=EDGE_CURVE('',#338,#373,#470,.T.);
#314=EDGE_CURVE('',#337,#387,#42,.T.);
#315=EDGE_CURVE('',#388,#387,#471,.T.);
#316=EDGE_CURVE('',#388,#334,#43,.T.);
#317=EDGE_CURVE('',#389,#385,#472,.T.);
#318=EDGE_CURVE('',#389,#390,#473,.T.);
#319=EDGE_CURVE('',#390,#386,#474,.T.);
#320=EDGE_CURVE('',#390,#375,#44,.T.);
#321=EDGE_CURVE('',#369,#389,#45,.T.);
#322=EDGE_CURVE('',#336,#391,#46,.T.);
#323=EDGE_CURVE('',#392,#335,#47,.T.);
#324=EDGE_CURVE('',#392,#391,#475,.T.);
#325=EDGE_CURVE('',#392,#388,#476,.T.);
#326=EDGE_CURVE('',#391,#387,#477,.T.);
#327=EDGE_CURVE('',#394,#394,#48,.T.);
#328=EDGE_CURVE('',#396,#396,#49,.T.);
#329=EDGE_CURVE('',#398,#398,#50,.T.);
#330=EDGE_CURVE('',#400,#400,#51,.T.);
#331=EDGE_CURVE('',#402,#402,#52,.T.);
#332=EDGE_CURVE('',#404,#404,#53,.T.);
#333=VERTEX_POINT('',#1023);
#334=VERTEX_POINT('',#1024);
#335=VERTEX_POINT('',#1026);
#336=VERTEX_POINT('',#1028);
#337=VERTEX_POINT('',#1030);
#338=VERTEX_POINT('',#1032);
#339=VERTEX_POINT('',#1034);
#340=VERTEX_POINT('',#1036);
#341=VERTEX_POINT('',#1039);
#342=VERTEX_POINT('',#1040);
#343=VERTEX_POINT('',#1042);
#344=VERTEX_POINT('',#1045);
#345=VERTEX_POINT('',#1046);
#346=VERTEX_POINT('',#1048);
#347=VERTEX_POINT('',#1051);
#348=VERTEX_POINT('',#1052);
#349=VERTEX_POINT('',#1054);
#350=VERTEX_POINT('',#1057);
#351=VERTEX_POINT('',#1058);
#352=VERTEX_POINT('',#1060);
#353=VERTEX_POINT('',#1063);
#354=VERTEX_POINT('',#1064);
#355=VERTEX_POINT('',#1066);
#356=VERTEX_POINT('',#1070);
#357=VERTEX_POINT('',#1072);
#358=VERTEX_POINT('',#1076);
#359=VERTEX_POINT('',#1080);
#360=VERTEX_POINT('',#1082);
#361=VERTEX_POINT('',#1086);
#362=VERTEX_POINT('',#1090);
#363=VERTEX_POINT('',#1092);
#364=VERTEX_POINT('',#1096);
#365=VERTEX_POINT('',#1098);
#366=VERTEX_POINT('',#1102);
#367=VERTEX_POINT('',#1104);
#368=VERTEX_POINT('',#1108);
#369=VERTEX_POINT('',#1109);
#370=VERTEX_POINT('',#1111);
#371=VERTEX_POINT('',#1113);
#372=VERTEX_POINT('',#1115);
#373=VERTEX_POINT('',#1117);
#374=VERTEX_POINT('',#1119);
#375=VERTEX_POINT('',#1121);
#376=VERTEX_POINT('',#1125);
#377=VERTEX_POINT('',#1128);
#378=VERTEX_POINT('',#1132);
#379=VERTEX_POINT('',#1150);
#380=VERTEX_POINT('',#1152);
#381=VERTEX_POINT('',#1156);
#382=VERTEX_POINT('',#1158);
#383=VERTEX_POINT('',#1160);
#384=VERTEX_POINT('',#1162);
#385=VERTEX_POINT('',#1164);
#386=VERTEX_POINT('',#1166);
#387=VERTEX_POINT('',#1170);
#388=VERTEX_POINT('',#1172);
#389=VERTEX_POINT('',#1177);
#390=VERTEX_POINT('',#1179);
#391=VERTEX_POINT('',#1188);
#392=VERTEX_POINT('',#1190);
#393=VERTEX_POINT('',#1198);
#394=VERTEX_POINT('',#1200);
#395=VERTEX_POINT('',#1203);
#396=VERTEX_POINT('',#1205);
#397=VERTEX_POINT('',#1208);
#398=VERTEX_POINT('',#1210);
#399=VERTEX_POINT('',#1213);
#400=VERTEX_POINT('',#1215);
#401=VERTEX_POINT('',#1218);
#402=VERTEX_POINT('',#1220);
#403=VERTEX_POINT('',#1223);
#404=VERTEX_POINT('',#1225);
#405=LINE('',#1022,#478);
#406=LINE('',#1025,#479);
#407=LINE('',#1027,#480);
#408=LINE('',#1029,#481);
#409=LINE('',#1031,#482);
#410=LINE('',#1033,#483);
#411=LINE('',#1035,#484);
#412=LINE('',#1037,#485);
#413=LINE('',#1038,#486);
#414=LINE('',#1041,#487);
#415=LINE('',#1043,#488);
#416=LINE('',#1044,#489);
#417=LINE('',#1047,#490);
#418=LINE('',#1049,#491);
#419=LINE('',#1050,#492);
#420=LINE('',#1053,#493);
#421=LINE('',#1055,#494);
#422=LINE('',#1056,#495);
#423=LINE('',#1059,#496);
#424=LINE('',#1061,#497);
#425=LINE('',#1062,#498);
#426=LINE('',#1065,#499);
#427=LINE('',#1067,#500);
#428=LINE('',#1069,#501);
#429=LINE('',#1071,#502);
#430=LINE('',#1073,#503);
#431=LINE('',#1075,#504);
#432=LINE('',#1077,#505);
#433=LINE('',#1079,#506);
#434=LINE('',#1081,#507);
#435=LINE('',#1083,#508);
#436=LINE('',#1085,#509);
#437=LINE('',#1087,#510);
#438=LINE('',#1089,#511);
#439=LINE('',#1091,#512);
#440=LINE('',#1093,#513);
#441=LINE('',#1095,#514);
#442=LINE('',#1097,#515);
#443=LINE('',#1099,#516);
#444=LINE('',#1101,#517);
#445=LINE('',#1103,#518);
#446=LINE('',#1105,#519);
#447=LINE('',#1107,#520);
#448=LINE('',#1110,#521);
#449=LINE('',#1112,#522);
#450=LINE('',#1114,#523);
#451=LINE('',#1116,#524);
#452=LINE('',#1118,#525);
#453=LINE('',#1120,#526);
#454=LINE('',#1122,#527);
#455=LINE('',#1123,#528);
#456=LINE('',#1124,#529);
#457=LINE('',#1126,#530);
#458=LINE('',#1127,#531);
#459=LINE('',#1129,#532);
#460=LINE('',#1130,#533);
#461=LINE('',#1131,#534);
#462=LINE('',#1133,#535);
#463=LINE('',#1135,#536);
#464=LINE('',#1138,#537);
#465=LINE('',#1142,#538);
#466=LINE('',#1146,#539);
#467=LINE('',#1147,#540);
#468=LINE('',#1153,#541);
#469=LINE('',#1165,#542);
#470=LINE('',#1168,#543);
#471=LINE('',#1171,#544);
#472=LINE('',#1176,#545);
#473=LINE('',#1178,#546);
#474=LINE('',#1180,#547);
#475=LINE('',#1191,#548);
#476=LINE('',#1193,#549);
#477=LINE('',#1195,#550);
#478=VECTOR('',#827,1.);
#479=VECTOR('',#828,1.);
#480=VECTOR('',#829,1.);
#481=VECTOR('',#830,1.);
#482=VECTOR('',#831,1.);
#483=VECTOR('',#832,1.);
#484=VECTOR('',#833,1.);
#485=VECTOR('',#834,1.);
#486=VECTOR('',#835,1.);
#487=VECTOR('',#836,1.);
#488=VECTOR('',#837,1.);
#489=VECTOR('',#838,1.);
#490=VECTOR('',#839,1.);
#491=VECTOR('',#840,1.);
#492=VECTOR('',#841,1.);
#493=VECTOR('',#842,1.);
#494=VECTOR('',#843,1.);
#495=VECTOR('',#844,1.);
#496=VECTOR('',#845,1.);
#497=VECTOR('',#846,1.);
#498=VECTOR('',#847,1.);
#499=VECTOR('',#848,1.);
#500=VECTOR('',#849,1.);
#501=VECTOR('',#852,1.);
#502=VECTOR('',#853,1.);
#503=VECTOR('',#854,1.);
#504=VECTOR('',#857,1.);
#505=VECTOR('',#858,1.);
#506=VECTOR('',#861,1.);
#507=VECTOR('',#862,1.);
#508=VECTOR('',#863,1.);
#509=VECTOR('',#866,1.);
#510=VECTOR('',#867,1.);
#511=VECTOR('',#870,1.);
#512=VECTOR('',#871,1.);
#513=VECTOR('',#872,1.);
#514=VECTOR('',#875,1.);
#515=VECTOR('',#876,1.);
#516=VECTOR('',#877,1.);
#517=VECTOR('',#880,1.);
#518=VECTOR('',#881,1.);
#519=VECTOR('',#882,1.);
#520=VECTOR('',#885,1.);
#521=VECTOR('',#886,1.);
#522=VECTOR('',#887,1.);
#523=VECTOR('',#888,1.);
#524=VECTOR('',#889,1.);
#525=VECTOR('',#890,1.);
#526=VECTOR('',#891,1.);
#527=VECTOR('',#892,1.);
#528=VECTOR('',#893,1.);
#529=VECTOR('',#894,1.);
#530=VECTOR('',#895,1.);
#531=VECTOR('',#896,1.);
#532=VECTOR('',#897,1.);
#533=VECTOR('',#898,1.);
#534=VECTOR('',#899,1.);
#535=VECTOR('',#900,1.);
#536=VECTOR('',#903,1.);
#537=VECTOR('',#908,1.);
#538=VECTOR('',#915,1.);
#539=VECTOR('',#922,1.);
#540=VECTOR('',#923,1.);
#541=VECTOR('',#930,1.);
#542=VECTOR('',#943,1.);
#543=VECTOR('',#946,1.);
#544=VECTOR('',#949,1.);
#545=VECTOR('',#956,1.);
#546=VECTOR('',#957,1.);
#547=VECTOR('',#958,1.);
#548=VECTOR('',#975,1.);
#549=VECTOR('',#978,1.);
#550=VECTOR('',#981,1.);
#551=EDGE_LOOP('',(#54,#55,#56,#57,#58,#59,#60,#61));
#552=EDGE_LOOP('',(#62,#63,#64));
#553=EDGE_LOOP('',(#65,#66,#67));
#554=EDGE_LOOP('',(#68,#69,#70));
#555=EDGE_LOOP('',(#71,#72,#73));
#556=EDGE_LOOP('',(#74,#75,#76));
#557=EDGE_LOOP('',(#77,#78,#79,#80));
#558=EDGE_LOOP('',(#81,#82,#83,#84));
#559=EDGE_LOOP('',(#85,#86,#87,#88));
#560=EDGE_LOOP('',(#89,#90,#91,#92));
#561=EDGE_LOOP('',(#93,#94,#95,#96));
#562=EDGE_LOOP('',(#97,#98,#99,#100));
#563=EDGE_LOOP('',(#101,#102,#103,#104));
#564=EDGE_LOOP('',(#105,#106,#107,#108,#109,#110,#111,#112));
#565=EDGE_LOOP('',(#113,#114,#115));
#566=EDGE_LOOP('',(#116,#117,#118));
#567=EDGE_LOOP('',(#119,#120,#121));
#568=EDGE_LOOP('',(#122,#123,#124));
#569=EDGE_LOOP('',(#125,#126,#127));
#570=EDGE_LOOP('',(#128,#129,#130,#131));
#571=EDGE_LOOP('',(#132,#133,#134,#135));
#572=EDGE_LOOP('',(#136,#137,#138,#139));
#573=EDGE_LOOP('',(#140,#141,#142,#143));
#574=EDGE_LOOP('',(#144,#145,#146,#147));
#575=EDGE_LOOP('',(#148,#149,#150,#151));
#576=EDGE_LOOP('',(#152,#153,#154,#155));
#577=EDGE_LOOP('',(#156,#157,#158,#159));
#578=EDGE_LOOP('',(#160,#161,#162,#163));
#579=EDGE_LOOP('',(#164));
#580=EDGE_LOOP('',(#165));
#581=EDGE_LOOP('',(#166,#167,#168,#169));
#582=EDGE_LOOP('',(#170));
#583=EDGE_LOOP('',(#171));
#584=EDGE_LOOP('',(#172));
#585=EDGE_LOOP('',(#173));
#586=EDGE_LOOP('',(#174,#175,#176,#177,#178,#179,#180,#181,#182,#183,#184,
#185));
#587=EDGE_LOOP('',(#186,#187,#188,#189));
#588=EDGE_LOOP('',(#190,#191,#192,#193));
#589=EDGE_LOOP('',(#194,#195,#196,#197));
#590=EDGE_LOOP('',(#198,#199,#200,#201));
#591=EDGE_LOOP('',(#202,#203,#204,#205));
#592=EDGE_LOOP('',(#206,#207,#208,#209));
#593=EDGE_LOOP('',(#210,#211,#212,#213));
#594=EDGE_LOOP('',(#214,#215,#216,#217));
#595=EDGE_LOOP('',(#218,#219,#220,#221));
#596=EDGE_LOOP('',(#222));
#597=EDGE_LOOP('',(#223));
#598=EDGE_LOOP('',(#224));
#599=EDGE_LOOP('',(#225));
#600=EDGE_LOOP('',(#226));
#601=EDGE_LOOP('',(#227));
#602=EDGE_LOOP('',(#228));
#603=EDGE_LOOP('',(#229));
#604=EDGE_LOOP('',(#230));
#605=EDGE_LOOP('',(#231));
#606=EDGE_LOOP('',(#232));
#607=EDGE_LOOP('',(#233));
#608=EDGE_LOOP('',(#234));
#609=EDGE_LOOP('',(#235));
#610=EDGE_LOOP('',(#236));
#611=EDGE_LOOP('',(#237));
#612=EDGE_LOOP('',(#238));
#613=EDGE_LOOP('',(#239));
#614=FACE_BOUND('',#551,.T.);
#615=FACE_BOUND('',#552,.T.);
#616=FACE_BOUND('',#553,.T.);
#617=FACE_BOUND('',#554,.T.);
#618=FACE_BOUND('',#555,.T.);
#619=FACE_BOUND('',#556,.T.);
#620=FACE_BOUND('',#557,.T.);
#621=FACE_BOUND('',#558,.T.);
#622=FACE_BOUND('',#559,.T.);
#623=FACE_BOUND('',#560,.T.);
#624=FACE_BOUND('',#561,.T.);
#625=FACE_BOUND('',#562,.T.);
#626=FACE_BOUND('',#563,.T.);
#627=FACE_BOUND('',#564,.T.);
#628=FACE_BOUND('',#565,.T.);
#629=FACE_BOUND('',#566,.T.);
#630=FACE_BOUND('',#567,.T.);
#631=FACE_BOUND('',#568,.T.);
#632=FACE_BOUND('',#569,.T.);
#633=FACE_BOUND('',#570,.T.);
#634=FACE_BOUND('',#571,.T.);
#635=FACE_BOUND('',#572,.T.);
#636=FACE_BOUND('',#573,.T.);
#637=FACE_BOUND('',#574,.T.);
#638=FACE_BOUND('',#575,.T.);
#639=FACE_BOUND('',#576,.T.);
#640=FACE_BOUND('',#577,.T.);
#641=FACE_BOUND('',#578,.T.);
#642=FACE_BOUND('',#579,.T.);
#643=FACE_BOUND('',#580,.T.);
#644=FACE_BOUND('',#581,.T.);
#645=FACE_BOUND('',#582,.T.);
#646=FACE_BOUND('',#583,.T.);
#647=FACE_BOUND('',#584,.T.);
#648=FACE_BOUND('',#585,.T.);
#649=FACE_BOUND('',#586,.T.);
#650=FACE_BOUND('',#587,.T.);
#651=FACE_BOUND('',#588,.T.);
#652=FACE_BOUND('',#589,.T.);
#653=FACE_BOUND('',#590,.T.);
#654=FACE_BOUND('',#591,.T.);
#655=FACE_BOUND('',#592,.T.);
#656=FACE_BOUND('',#593,.T.);
#657=FACE_BOUND('',#594,.T.);
#658=FACE_BOUND('',#595,.T.);
#659=FACE_BOUND('',#12,.T.);
#660=FACE_BOUND('',#596,.T.);
#661=FACE_BOUND('',#597,.T.);
#662=FACE_BOUND('',#598,.T.);
#663=FACE_BOUND('',#13,.T.);
#664=FACE_BOUND('',#599,.T.);
#665=FACE_BOUND('',#600,.T.);
#666=FACE_BOUND('',#601,.T.);
#667=FACE_BOUND('',#14,.T.);
#668=FACE_BOUND('',#602,.T.);
#669=FACE_BOUND('',#603,.T.);
#670=FACE_BOUND('',#604,.T.);
#671=FACE_BOUND('',#15,.T.);
#672=FACE_BOUND('',#605,.T.);
#673=FACE_BOUND('',#606,.T.);
#674=FACE_BOUND('',#607,.T.);
#675=FACE_BOUND('',#16,.T.);
#676=FACE_BOUND('',#608,.T.);
#677=FACE_BOUND('',#609,.T.);
#678=FACE_BOUND('',#610,.T.);
#679=FACE_BOUND('',#17,.T.);
#680=FACE_BOUND('',#611,.T.);
#681=FACE_BOUND('',#612,.T.);
#682=FACE_BOUND('',#613,.T.);
#683=PLANE('',#762);
#684=PLANE('',#763);
#685=PLANE('',#764);
#686=PLANE('',#765);
#687=PLANE('',#766);
#688=PLANE('',#767);
#689=PLANE('',#768);
#690=PLANE('',#769);
#691=PLANE('',#770);
#692=PLANE('',#771);
#693=PLANE('',#772);
#694=PLANE('',#773);
#695=PLANE('',#774);
#696=PLANE('',#775);
#697=PLANE('',#776);
#698=PLANE('',#777);
#699=PLANE('',#778);
#700=PLANE('',#779);
#701=PLANE('',#780);
#702=PLANE('',#783);
#703=PLANE('',#792);
#704=PLANE('',#793);
#705=PLANE('',#794);
#706=PLANE('',#799);
#707=PLANE('',#804);
#708=ADVANCED_FACE('',(#614,#615,#616,#617,#618,#619),#683,.F.);
#709=ADVANCED_FACE('',(#620),#684,.T.);
#710=ADVANCED_FACE('',(#621),#685,.T.);
#711=ADVANCED_FACE('',(#622),#686,.T.);
#712=ADVANCED_FACE('',(#623),#687,.T.);
#713=ADVANCED_FACE('',(#624),#688,.T.);
#714=ADVANCED_FACE('',(#625),#689,.T.);
#715=ADVANCED_FACE('',(#626),#690,.T.);
#716=ADVANCED_FACE('',(#627,#628,#629,#630,#631,#632),#691,.T.);
#717=ADVANCED_FACE('',(#633),#692,.T.);
#718=ADVANCED_FACE('',(#634),#693,.T.);
#719=ADVANCED_FACE('',(#635),#694,.T.);
#720=ADVANCED_FACE('',(#636),#695,.T.);
#721=ADVANCED_FACE('',(#637),#696,.T.);
#722=ADVANCED_FACE('',(#638),#697,.T.);
#723=ADVANCED_FACE('',(#639),#698,.T.);
#724=ADVANCED_FACE('',(#640),#699,.T.);
#725=ADVANCED_FACE('',(#641),#700,.F.);
#726=ADVANCED_FACE('',(#642,#643,#644),#701,.F.);
#727=ADVANCED_FACE('',(#645,#646,#647,#648,#649),#702,.F.);
#728=ADVANCED_FACE('',(#650),#703,.F.);
#729=ADVANCED_FACE('',(#651),#704,.T.);
#730=ADVANCED_FACE('',(#652),#705,.F.);
#731=ADVANCED_FACE('',(#653),#24,.T.);
#732=ADVANCED_FACE('',(#654),#25,.T.);
#733=ADVANCED_FACE('',(#655),#706,.F.);
#734=ADVANCED_FACE('',(#656),#26,.T.);
#735=ADVANCED_FACE('',(#657),#27,.T.);
#736=ADVANCED_FACE('',(#658),#707,.F.);
#737=ADVANCED_FACE('',(#659,#660),#18,.F.);
#738=ADVANCED_FACE('',(#661,#662),#28,.F.);
#739=ADVANCED_FACE('',(#663,#664),#19,.F.);
#740=ADVANCED_FACE('',(#665,#666),#29,.F.);
#741=ADVANCED_FACE('',(#667,#668),#20,.F.);
#742=ADVANCED_FACE('',(#669,#670),#30,.F.);
#743=ADVANCED_FACE('',(#671,#672),#21,.F.);
#744=ADVANCED_FACE('',(#673,#674),#31,.F.);
#745=ADVANCED_FACE('',(#675,#676),#22,.F.);
#746=ADVANCED_FACE('',(#677,#678),#32,.F.);
#747=ADVANCED_FACE('',(#679,#680),#23,.F.);
#748=ADVANCED_FACE('',(#681,#682),#33,.F.);
#749=CLOSED_SHELL('',(#708,#709,#710,#711,#712,#713,#714,#715,#716,#717,
#718,#719,#720,#721,#722,#723,#724,#725,#726,#727,#728,#729,#730,#731,#732,
#733,#734,#735,#736,#737,#738,#739,#740,#741,#742,#743,#744,#745,#746,#747,
#748));
#750=STYLED_ITEM('',(#751),#758);
#751=PRESENTATION_STYLE_ASSIGNMENT((#752));
#752=SURFACE_STYLE_USAGE(.BOTH.,#753);
#753=SURFACE_SIDE_STYLE('',(#754));
#754=SURFACE_STYLE_FILL_AREA(#755);
#755=FILL_AREA_STYLE('',(#756));
#756=FILL_AREA_STYLE_COLOUR('',#757);
#757=COLOUR_RGB('',0.792156862745098,0.819607843137255,0.933333333333333);
#758=MANIFOLD_SOLID_BREP('Default',#749);
#759=SHAPE_DEFINITION_REPRESENTATION(#1233,#760);
#760=SHAPE_REPRESENTATION('Default',(#761),#1228);
#761=AXIS2_PLACEMENT_3D('',#1020,#823,#824);
#762=AXIS2_PLACEMENT_3D('',#1021,#825,#826);
#763=AXIS2_PLACEMENT_3D('',#1068,#850,#851);
#764=AXIS2_PLACEMENT_3D('',#1074,#855,#856);
#765=AXIS2_PLACEMENT_3D('',#1078,#859,#860);
#766=AXIS2_PLACEMENT_3D('',#1084,#864,#865);
#767=AXIS2_PLACEMENT_3D('',#1088,#868,#869);
#768=AXIS2_PLACEMENT_3D('',#1094,#873,#874);
#769=AXIS2_PLACEMENT_3D('',#1100,#878,#879);
#770=AXIS2_PLACEMENT_3D('',#1106,#883,#884);
#771=AXIS2_PLACEMENT_3D('',#1134,#901,#902);
#772=AXIS2_PLACEMENT_3D('',#1136,#904,#905);
#773=AXIS2_PLACEMENT_3D('',#1137,#906,#907);
#774=AXIS2_PLACEMENT_3D('',#1139,#909,#910);
#775=AXIS2_PLACEMENT_3D('',#1140,#911,#912);
#776=AXIS2_PLACEMENT_3D('',#1141,#913,#914);
#777=AXIS2_PLACEMENT_3D('',#1143,#916,#917);
#778=AXIS2_PLACEMENT_3D('',#1144,#918,#919);
#779=AXIS2_PLACEMENT_3D('',#1145,#920,#921);
#780=AXIS2_PLACEMENT_3D('',#1148,#924,#925);
#781=AXIS2_PLACEMENT_3D('',#1149,#926,#927);
#782=AXIS2_PLACEMENT_3D('',#1151,#928,#929);
#783=AXIS2_PLACEMENT_3D('',#1154,#931,#932);
#784=AXIS2_PLACEMENT_3D('',#1155,#933,#934);
#785=AXIS2_PLACEMENT_3D('',#1157,#935,#936);
#786=AXIS2_PLACEMENT_3D('',#1159,#937,#938);
#787=AXIS2_PLACEMENT_3D('',#1161,#939,#940);
#788=AXIS2_PLACEMENT_3D('',#1163,#941,#942);
#789=AXIS2_PLACEMENT_3D('',#1167,#944,#945);
#790=AXIS2_PLACEMENT_3D('',#1169,#947,#948);
#791=AXIS2_PLACEMENT_3D('',#1173,#950,#951);
#792=AXIS2_PLACEMENT_3D('',#1174,#952,#953);
#793=AXIS2_PLACEMENT_3D('',#1175,#954,#955);
#794=AXIS2_PLACEMENT_3D('',#1181,#959,#960);
#795=AXIS2_PLACEMENT_3D('',#1182,#961,#962);
#796=AXIS2_PLACEMENT_3D('',#1183,#963,#964);
#797=AXIS2_PLACEMENT_3D('',#1184,#965,#966);
#798=AXIS2_PLACEMENT_3D('',#1185,#967,#968);
#799=AXIS2_PLACEMENT_3D('',#1186,#969,#970);
#800=AXIS2_PLACEMENT_3D('',#1187,#971,#972);
#801=AXIS2_PLACEMENT_3D('',#1189,#973,#974);
#802=AXIS2_PLACEMENT_3D('',#1192,#976,#977);
#803=AXIS2_PLACEMENT_3D('',#1194,#979,#980);
#804=AXIS2_PLACEMENT_3D('',#1196,#982,#983);
#805=AXIS2_PLACEMENT_3D('',#1197,#984,#985);
#806=AXIS2_PLACEMENT_3D('',#1199,#986,#987);
#807=AXIS2_PLACEMENT_3D('',#1201,#988,#989);
#808=AXIS2_PLACEMENT_3D('',#1202,#990,#991);
#809=AXIS2_PLACEMENT_3D('',#1204,#992,#993);
#810=AXIS2_PLACEMENT_3D('',#1206,#994,#995);
#811=AXIS2_PLACEMENT_3D('',#1207,#996,#997);
#812=AXIS2_PLACEMENT_3D('',#1209,#998,#999);
#813=AXIS2_PLACEMENT_3D('',#1211,#1000,#1001);
#814=AXIS2_PLACEMENT_3D('',#1212,#1002,#1003);
#815=AXIS2_PLACEMENT_3D('',#1214,#1004,#1005);
#816=AXIS2_PLACEMENT_3D('',#1216,#1006,#1007);
#817=AXIS2_PLACEMENT_3D('',#1217,#1008,#1009);
#818=AXIS2_PLACEMENT_3D('',#1219,#1010,#1011);
#819=AXIS2_PLACEMENT_3D('',#1221,#1012,#1013);
#820=AXIS2_PLACEMENT_3D('',#1222,#1014,#1015);
#821=AXIS2_PLACEMENT_3D('',#1224,#1016,#1017);
#822=AXIS2_PLACEMENT_3D('',#1226,#1018,#1019);
#823=DIRECTION('',(0.,0.,1.));
#824=DIRECTION('',(1.,0.,0.));
#825=DIRECTION('',(0.,-1.,0.));
#826=DIRECTION('',(0.,0.,-1.));
#827=DIRECTION('',(0.,0.,-1.));
#828=DIRECTION('',(1.,0.,0.));
#829=DIRECTION('',(0.,0.,1.));
#830=DIRECTION('',(1.,0.,0.));
#831=DIRECTION('',(0.,0.,-1.));
#832=DIRECTION('',(-1.,0.,0.));
#833=DIRECTION('',(0.,0.,1.));
#834=DIRECTION('',(1.,0.,0.));
#835=DIRECTION('',(0.,0.,-1.));
#836=DIRECTION('',(0.844819075554229,0.,0.535052081184345));
#837=DIRECTION('',(-1.,0.,-2.55138899403528E-16));
#838=DIRECTION('',(-0.817806419300767,0.,0.575493406174614));
#839=DIRECTION('',(-0.844819075554229,0.,-0.535052081184345));
#840=DIRECTION('',(1.,0.,0.));
#841=DIRECTION('',(-1.,0.,0.));
#842=DIRECTION('',(0.817806419300767,0.,-0.575493406174613));
#843=DIRECTION('',(0.817806419300767,0.,0.575493406174613));
#844=DIRECTION('',(-1.,0.,6.37847248508819E-17));
#845=DIRECTION('',(0.844819075554228,0.,-0.535052081184345));
#846=DIRECTION('',(0.,0.,1.));
#847=DIRECTION('',(-0.844819075554229,0.,0.535052081184345));
#848=DIRECTION('',(-0.817806419300767,0.,-0.575493406174614));
#849=DIRECTION('',(1.,0.,0.));
#850=DIRECTION('',(6.37847248508819E-17,0.,1.));
#851=DIRECTION('',(1.,0.,-6.37847248508819E-17));
#852=DIRECTION('',(0.,-1.,0.));
#853=DIRECTION('',(0.,-1.,0.));
#854=DIRECTION('',(-1.,0.,6.37847248508819E-17));
#855=DIRECTION('',(1.,0.,0.));
#856=DIRECTION('',(0.,0.,-1.));
#857=DIRECTION('',(0.,1.,0.));
#858=DIRECTION('',(0.,0.,1.));
#859=DIRECTION('',(-2.55138899403528E-16,0.,1.));
#860=DIRECTION('',(1.,0.,2.55138899403528E-16));
#861=DIRECTION('',(0.,1.,0.));
#862=DIRECTION('',(-1.,0.,-2.55138899403528E-16));
#863=DIRECTION('',(0.,-1.,0.));
#864=DIRECTION('',(-1.,0.,0.));
#865=DIRECTION('',(0.,0.,1.));
#866=DIRECTION('',(0.,-1.,0.));
#867=DIRECTION('',(0.,0.,-1.));
#868=DIRECTION('',(0.,0.,-1.));
#869=DIRECTION('',(-1.,0.,0.));
#870=DIRECTION('',(0.,1.,0.));
#871=DIRECTION('',(1.,0.,0.));
#872=DIRECTION('',(0.,-1.,0.));
#873=DIRECTION('',(0.,0.,-1.));
#874=DIRECTION('',(-1.,0.,0.));
#875=DIRECTION('',(0.,1.,0.));
#876=DIRECTION('',(1.,0.,0.));
#877=DIRECTION('',(0.,-1.,0.));
#878=DIRECTION('',(0.,0.,1.));
#879=DIRECTION('',(1.,0.,0.));
#880=DIRECTION('',(0.,-1.,0.));
#881=DIRECTION('',(0.,1.,0.));
#882=DIRECTION('',(-1.,0.,0.));
#883=DIRECTION('',(0.,-1.,0.));
#884=DIRECTION('',(1.,0.,0.));
#885=DIRECTION('',(1.,0.,0.));
#886=DIRECTION('',(0.,0.,-1.));
#887=DIRECTION('',(1.,0.,0.));
#888=DIRECTION('',(0.,0.,1.));
#889=DIRECTION('',(-1.,0.,0.));
#890=DIRECTION('',(0.,0.,-1.));
#891=DIRECTION('',(1.,0.,0.));
#892=DIRECTION('',(0.,0.,1.));
#893=DIRECTION('',(0.844819075554229,0.,0.535052081184345));
#894=DIRECTION('',(-0.844819075554229,0.,-0.535052081184345));
#895=DIRECTION('',(-0.817806419300767,0.,0.575493406174614));
#896=DIRECTION('',(0.817806419300767,0.,-0.575493406174613));
#897=DIRECTION('',(0.817806419300767,0.,0.575493406174613));
#898=DIRECTION('',(0.844819075554228,0.,-0.535052081184345));
#899=DIRECTION('',(-0.817806419300767,0.,-0.575493406174614));
#900=DIRECTION('',(-0.844819075554229,0.,0.535052081184345));
#901=DIRECTION('',(0.535052081184345,0.,0.844819075554228));
#902=DIRECTION('',(0.844819075554228,0.,-0.535052081184345));
#903=DIRECTION('',(0.,-1.,0.));
#904=DIRECTION('',(-0.575493406174614,0.,0.817806419300766));
#905=DIRECTION('',(0.817806419300767,0.,0.575493406174614));
#906=DIRECTION('',(0.575493406174613,0.,-0.817806419300767));
#907=DIRECTION('',(-0.817806419300767,0.,-0.575493406174613));
#908=DIRECTION('',(0.,1.,0.));
#909=DIRECTION('',(-0.535052081184345,0.,-0.844819075554228));
#910=DIRECTION('',(-0.844819075554228,0.,0.535052081184345));
#911=DIRECTION('',(-0.575493406174613,0.,-0.817806419300767));
#912=DIRECTION('',(-0.817806419300767,0.,0.575493406174613));
#913=DIRECTION('',(0.575493406174614,0.,0.817806419300766));
#914=DIRECTION('',(0.817806419300767,0.,-0.575493406174614));
#915=DIRECTION('',(0.,-1.,0.));
#916=DIRECTION('',(-0.535052081184345,0.,0.844819075554229));
#917=DIRECTION('',(0.844819075554229,0.,0.535052081184345));
#918=DIRECTION('',(0.535052081184345,0.,-0.844819075554229));
#919=DIRECTION('',(-0.844819075554229,0.,-0.535052081184345));
#920=DIRECTION('',(0.,0.,-1.));
#921=DIRECTION('',(-1.,0.,0.));
#922=DIRECTION('',(0.,-1.,0.));
#923=DIRECTION('',(0.,-1.,0.));
#924=DIRECTION('',(1.,0.,0.));
#925=DIRECTION('',(0.,0.,-1.));
#926=DIRECTION('',(1.,0.,0.));
#927=DIRECTION('',(0.,0.,-1.));
#928=DIRECTION('',(1.,0.,0.));
#929=DIRECTION('',(0.,0.,-1.));
#930=DIRECTION('',(0.,-1.,0.));
#931=DIRECTION('',(-1.,0.,0.));
#932=DIRECTION('',(0.,0.,1.));
#933=DIRECTION('',(-1.,0.,0.));
#934=DIRECTION('',(0.,0.,1.));
#935=DIRECTION('',(-1.,0.,0.));
#936=DIRECTION('',(0.,0.,1.));
#937=DIRECTION('',(-1.,0.,0.));
#938=DIRECTION('',(0.,0.,1.));
#939=DIRECTION('',(-1.,0.,0.));
#940=DIRECTION('',(0.,0.,1.));
#941=DIRECTION('',(1.,0.,0.));
#942=DIRECTION('',(0.,0.,-1.));
#943=DIRECTION('',(0.,0.,-1.));
#944=DIRECTION('',(1.,0.,0.));
#945=DIRECTION('',(0.,0.,-1.));
#946=DIRECTION('',(0.,-1.,0.));
#947=DIRECTION('',(1.,0.,0.));
#948=DIRECTION('',(0.,0.,-1.));
#949=DIRECTION('',(0.,0.,-1.));
#950=DIRECTION('',(1.,0.,0.));
#951=DIRECTION('',(0.,0.,-1.));
#952=DIRECTION('',(0.,0.,1.));
#953=DIRECTION('',(1.,0.,0.));
#954=DIRECTION('',(0.,-1.,0.));
#955=DIRECTION('',(0.,0.,-1.));
#956=DIRECTION('',(1.,0.,0.));
#957=DIRECTION('',(0.,0.,-1.));
#958=DIRECTION('',(1.,0.,0.));
#959=DIRECTION('',(1.,0.,0.));
#960=DIRECTION('',(0.,1.,0.));
#961=DIRECTION('',(1.,0.,0.));
#962=DIRECTION('',(0.,0.,-1.));
#963=DIRECTION('',(1.,0.,0.));
#964=DIRECTION('',(0.,0.,-1.));
#965=DIRECTION('',(1.,0.,0.));
#966=DIRECTION('',(0.,0.,-1.));
#967=DIRECTION('',(1.,0.,0.));
#968=DIRECTION('',(0.,0.,-1.));
#969=DIRECTION('',(1.,0.,0.));
#970=DIRECTION('',(0.,1.,0.));
#971=DIRECTION('',(1.,0.,0.));
#972=DIRECTION('',(0.,0.,-1.));
#973=DIRECTION('',(1.,0.,0.));
#974=DIRECTION('',(0.,0.,-1.));
#975=DIRECTION('',(0.,0.,-1.));
#976=DIRECTION('',(1.,0.,0.));
#977=DIRECTION('',(0.,0.,-1.));
#978=DIRECTION('',(1.,0.,0.));
#979=DIRECTION('',(1.,0.,0.));
#980=DIRECTION('',(0.,0.,-1.));
#981=DIRECTION('',(1.,0.,0.));
#982=DIRECTION('',(0.,-1.,0.));
#983=DIRECTION('',(0.,0.,-1.));
#984=DIRECTION('',(1.,0.,0.));
#985=DIRECTION('',(0.,0.,-1.));
#986=DIRECTION('',(-1.,0.,0.));
#987=DIRECTION('',(0.,0.,1.));
#988=DIRECTION('',(-1.,0.,0.));
#989=DIRECTION('',(0.,0.,1.));
#990=DIRECTION('',(1.,0.,0.));
#991=DIRECTION('',(0.,0.,-1.));
#992=DIRECTION('',(-1.,0.,0.));
#993=DIRECTION('',(0.,0.,1.));
#994=DIRECTION('',(-1.,0.,0.));
#995=DIRECTION('',(0.,0.,1.));
#996=DIRECTION('',(1.,0.,0.));
#997=DIRECTION('',(0.,0.,-1.));
#998=DIRECTION('',(-1.,0.,0.));
#999=DIRECTION('',(0.,0.,1.));
#1000=DIRECTION('',(-1.,0.,0.));
#1001=DIRECTION('',(0.,0.,1.));
#1002=DIRECTION('',(1.,0.,0.));
#1003=DIRECTION('',(0.,0.,-1.));
#1004=DIRECTION('',(-1.,0.,0.));
#1005=DIRECTION('',(0.,0.,1.));
#1006=DIRECTION('',(-1.,0.,0.));
#1007=DIRECTION('',(0.,0.,1.));
#1008=DIRECTION('',(-1.,0.,0.));
#1009=DIRECTION('',(0.,0.,1.));
#1010=DIRECTION('',(1.,0.,0.));
#1011=DIRECTION('',(0.,0.,-1.));
#1012=DIRECTION('',(1.,0.,0.));
#1013=DIRECTION('',(0.,0.,-1.));
#1014=DIRECTION('',(-1.,0.,0.));
#1015=DIRECTION('',(0.,0.,1.));
#1016=DIRECTION('',(1.,0.,0.));
#1017=DIRECTION('',(0.,0.,-1.));
#1018=DIRECTION('',(1.,0.,0.));
#1019=DIRECTION('',(0.,0.,-1.));
#1020=CARTESIAN_POINT('',(0.,0.,0.));
#1021=CARTESIAN_POINT('',(0.,0.003,0.));
#1022=CARTESIAN_POINT('',(0.0956660079051383,0.003,0.0125));
#1023=CARTESIAN_POINT('',(0.0956660079051383,0.003,0.0145));
#1024=CARTESIAN_POINT('',(0.0956660079051383,0.003,0.00652668246808973));
#1025=CARTESIAN_POINT('',(0.0916660079051383,0.003,0.00652668246808973));
#1026=CARTESIAN_POINT('',(0.0916660079051383,0.003,0.00652668246808973));
#1027=CARTESIAN_POINT('',(0.0916660079051383,0.003,0.));
#1028=CARTESIAN_POINT('',(0.0916660079051383,0.003,-0.00652668246808973));
#1029=CARTESIAN_POINT('',(0.0916660079051383,0.003,-0.00652668246808973));
#1030=CARTESIAN_POINT('',(0.0956660079051383,0.003,-0.00652668246808973));
#1031=CARTESIAN_POINT('',(0.0956660079051383,0.003,0.0125));
#1032=CARTESIAN_POINT('',(0.0956660079051383,0.003,-0.0145));
#1033=CARTESIAN_POINT('',(-0.0263339920948617,0.003,-0.0145));
#1034=CARTESIAN_POINT('',(-0.0283339920948616,0.003,-0.0145));
#1035=CARTESIAN_POINT('',(-0.0283339920948616,0.003,0.0125));
#1036=CARTESIAN_POINT('',(-0.0283339920948616,0.003,0.0145));
#1037=CARTESIAN_POINT('',(-0.0263339920948617,0.003,0.0145));
#1038=CARTESIAN_POINT('',(0.0906660079051383,0.003,0.00772447190954353));
#1039=CARTESIAN_POINT('',(0.0906660079051383,0.003,0.00535710112226824));
#1040=CARTESIAN_POINT('',(0.0906660079051383,0.003,-0.0095));
#1041=CARTESIAN_POINT('',(0.091736112067507,0.003,0.00603483375843507));
#1042=CARTESIAN_POINT('',(0.0672074271857674,0.003,-0.0095));
#1043=CARTESIAN_POINT('',(0.0634694733111222,0.003,-0.0095));
#1044=CARTESIAN_POINT('',(0.06186085797553,0.003,-0.00606107900751511));
#1045=CARTESIAN_POINT('',(0.0607683555072374,0.003,-0.00529228097427214));
#1046=CARTESIAN_POINT('',(0.0397477457016928,0.003,0.0095));
#1047=CARTESIAN_POINT('',(0.0867924383367857,0.003,0.0111896381511085));
#1048=CARTESIAN_POINT('',(0.0841245886245092,0.003,0.0095));
#1049=CARTESIAN_POINT('',(0.0362724669608046,0.003,0.0095));
#1050=CARTESIAN_POINT('',(0.0092724669608045,0.003,-0.0095));
#1051=CARTESIAN_POINT('',(0.0545842701085839,0.003,-0.0095));
#1052=CARTESIAN_POINT('',(0.0127477457016927,0.003,-0.0095));
#1053=CARTESIAN_POINT('',(0.056908562037123,0.003,-0.0111356128386015));
#1054=CARTESIAN_POINT('',(0.0336660079051384,0.003,0.00522025858760984));
#1055=CARTESIAN_POINT('',(0.0104234537731537,0.003,-0.0111356128386015));
#1056=CARTESIAN_POINT('',(-0.0233339920948617,0.003,-0.0095));
#1057=CARTESIAN_POINT('',(0.00012458862450922,0.003,-0.0095));
#1058=CARTESIAN_POINT('',(-0.0233339920948617,0.003,-0.0095));
#1059=CARTESIAN_POINT('',(-0.0244040962572303,0.003,0.00603483375843507));
#1060=CARTESIAN_POINT('',(-0.0233339920948617,0.003,0.00535710112226824));
#1061=CARTESIAN_POINT('',(-0.0233339920948617,0.003,0.00772447190954353));
#1062=CARTESIAN_POINT('',(-0.019460422526509,0.003,0.0111896381511085));
#1063=CARTESIAN_POINT('',(0.00656366030303929,0.003,-0.00529228097427216));
#1064=CARTESIAN_POINT('',(-0.0167925728142325,0.003,0.0095));
#1065=CARTESIAN_POINT('',(0.00547115783474664,0.003,-0.00606107900751511));
#1066=CARTESIAN_POINT('',(0.0275842701085838,0.003,0.0095));
#1067=CARTESIAN_POINT('',(-0.0205305266888778,0.003,0.0095));
#1068=CARTESIAN_POINT('',(-0.0233339920948617,0.003,-0.0095));
#1069=CARTESIAN_POINT('',(0.00012458862450922,0.003,-0.0095));
#1070=CARTESIAN_POINT('',(0.000124588624509203,-0.004,-0.0095));
#1071=CARTESIAN_POINT('',(-0.0233339920948617,0.003,-0.0095));
#1072=CARTESIAN_POINT('',(-0.0233339920948617,-0.004,-0.0095));
#1073=CARTESIAN_POINT('',(-0.0233339920948617,-0.004,-0.0095));
#1074=CARTESIAN_POINT('',(-0.0233339920948617,0.003,0.00772447190954353));
#1075=CARTESIAN_POINT('',(-0.0233339920948617,0.003,0.00535710112226824));
#1076=CARTESIAN_POINT('',(-0.0233339920948617,-0.004,0.00535710112226824));
#1077=CARTESIAN_POINT('',(-0.0233339920948617,-0.004,0.00772447190954353));
#1078=CARTESIAN_POINT('',(0.0634694733111222,0.003,-0.0095));
#1079=CARTESIAN_POINT('',(0.0672074271857674,0.003,-0.0095));
#1080=CARTESIAN_POINT('',(0.0672074271857674,-0.004,-0.0095));
#1081=CARTESIAN_POINT('',(0.0634694733111222,-0.004,-0.0095));
#1082=CARTESIAN_POINT('',(0.0906660079051383,-0.004,-0.0095));
#1083=CARTESIAN_POINT('',(0.0906660079051383,0.003,-0.0095));
#1084=CARTESIAN_POINT('',(0.0906660079051383,0.003,0.00772447190954353));
#1085=CARTESIAN_POINT('',(0.0906660079051383,0.003,0.00535710112226824));
#1086=CARTESIAN_POINT('',(0.0906660079051383,-0.004,0.00535710112226824));
#1087=CARTESIAN_POINT('',(0.0906660079051383,-0.004,0.00772447190954353));
#1088=CARTESIAN_POINT('',(-0.0205305266888778,0.003,0.0095));
#1089=CARTESIAN_POINT('',(0.0275842701085838,0.003,0.0095));
#1090=CARTESIAN_POINT('',(0.0275842701085838,-0.004,0.0095));
#1091=CARTESIAN_POINT('',(-0.0205305266888778,-0.004,0.0095));
#1092=CARTESIAN_POINT('',(-0.0167925728142325,-0.004,0.0095));
#1093=CARTESIAN_POINT('',(-0.0167925728142325,0.003,0.0095));
#1094=CARTESIAN_POINT('',(0.0362724669608046,0.003,0.0095));
#1095=CARTESIAN_POINT('',(0.0841245886245092,0.003,0.0095));
#1096=CARTESIAN_POINT('',(0.0841245886245092,-0.004,0.0095));
#1097=CARTESIAN_POINT('',(0.0362724669608046,-0.004,0.0095));
#1098=CARTESIAN_POINT('',(0.0397477457016927,-0.004,0.0095));
#1099=CARTESIAN_POINT('',(0.0397477457016928,0.003,0.0095));
#1100=CARTESIAN_POINT('',(0.0092724669608045,0.003,-0.0095));
#1101=CARTESIAN_POINT('',(0.0545842701085839,0.003,-0.0095));
#1102=CARTESIAN_POINT('',(0.054584270108584,-0.004,-0.0095));
#1103=CARTESIAN_POINT('',(0.0127477457016927,0.003,-0.0095));
#1104=CARTESIAN_POINT('',(0.0127477457016928,-0.004,-0.0095));
#1105=CARTESIAN_POINT('',(0.0092724669608045,-0.004,-0.0095));
#1106=CARTESIAN_POINT('',(0.0336660079051383,-0.004,0.));
#1107=CARTESIAN_POINT('',(0.0916660079051383,-0.004,0.00652668246808973));
#1108=CARTESIAN_POINT('',(0.0956660079051383,-0.004,0.00652668246808973));
#1109=CARTESIAN_POINT('',(0.0916660079051383,-0.004,0.00652668246808973));
#1110=CARTESIAN_POINT('',(0.0956660079051383,-0.004,0.0125));
#1111=CARTESIAN_POINT('',(0.0956660079051383,-0.004,0.0145));
#1112=CARTESIAN_POINT('',(-0.0263339920948617,-0.004,0.0145));
#1113=CARTESIAN_POINT('',(-0.0283339920948616,-0.004,0.0145));
#1114=CARTESIAN_POINT('',(-0.0283339920948616,-0.004,0.0125));
#1115=CARTESIAN_POINT('',(-0.0283339920948616,-0.004,-0.0145));
#1116=CARTESIAN_POINT('',(-0.0263339920948617,-0.004,-0.0145));
#1117=CARTESIAN_POINT('',(0.0956660079051383,-0.004,-0.0145));
#1118=CARTESIAN_POINT('',(0.0956660079051383,-0.004,0.0125));
#1119=CARTESIAN_POINT('',(0.0956660079051383,-0.004,-0.00652668246808973));
#1120=CARTESIAN_POINT('',(0.0916660079051383,-0.004,-0.00652668246808973));
#1121=CARTESIAN_POINT('',(0.0916660079051383,-0.004,-0.00652668246808973));
#1122=CARTESIAN_POINT('',(0.0916660079051383,-0.004,0.));
#1123=CARTESIAN_POINT('',(0.091736112067507,-0.004,0.00603483375843507));
#1124=CARTESIAN_POINT('',(0.0867924383367857,-0.004,0.0111896381511085));
#1125=CARTESIAN_POINT('',(0.0607683555072374,-0.004,-0.00529228097427216));
#1126=CARTESIAN_POINT('',(0.06186085797553,-0.004,-0.00606107900751511));
#1127=CARTESIAN_POINT('',(0.056908562037123,-0.004,-0.0111356128386015));
#1128=CARTESIAN_POINT('',(0.0336660079051384,-0.004,0.00522025858760984));
#1129=CARTESIAN_POINT('',(0.0104234537731537,-0.004,-0.0111356128386015));
#1130=CARTESIAN_POINT('',(-0.0244040962572303,-0.004,0.00603483375843507));
#1131=CARTESIAN_POINT('',(0.00547115783474664,-0.004,-0.00606107900751511));
#1132=CARTESIAN_POINT('',(0.00656366030303925,-0.004,-0.00529228097427216));
#1133=CARTESIAN_POINT('',(-0.019460422526509,-0.004,0.0111896381511085));
#1134=CARTESIAN_POINT('',(-0.019460422526509,0.003,0.0111896381511085));
#1135=CARTESIAN_POINT('',(0.00656366030303925,0.003,-0.00529228097427216));
#1136=CARTESIAN_POINT('',(0.00547115783474664,0.003,-0.00606107900751511));
#1137=CARTESIAN_POINT('',(0.0104234537731537,0.003,-0.0111356128386015));
#1138=CARTESIAN_POINT('',(0.0336660079051384,0.003,0.00522025858760984));
#1139=CARTESIAN_POINT('',(-0.0244040962572303,0.003,0.00603483375843507));
#1140=CARTESIAN_POINT('',(0.056908562037123,0.003,-0.0111356128386015));
#1141=CARTESIAN_POINT('',(0.06186085797553,0.003,-0.00606107900751511));
#1142=CARTESIAN_POINT('',(0.0607683555072374,0.003,-0.00529228097427214));
#1143=CARTESIAN_POINT('',(0.0867924383367857,0.003,0.0111896381511085));
#1144=CARTESIAN_POINT('',(0.091736112067507,0.003,0.00603483375843507));
#1145=CARTESIAN_POINT('',(-0.0263339920948617,0.003,0.0145));
#1146=CARTESIAN_POINT('',(-0.0283339920948616,0.003,0.0145));
#1147=CARTESIAN_POINT('',(0.0956660079051383,0.003,0.0145));
#1148=CARTESIAN_POINT('',(-0.0283339920948616,0.003,0.0125));
#1149=CARTESIAN_POINT('',(-0.0283339920948616,-0.0005,0.00425112526863814));
#1150=CARTESIAN_POINT('',(-0.0283339920948616,-0.0005,0.00275112526863814));
#1151=CARTESIAN_POINT('',(-0.0283339920948616,-0.0005,-0.00425112526863814));
#1152=CARTESIAN_POINT('',(-0.0283339920948616,-0.0005,-0.00575112526863814));
#1153=CARTESIAN_POINT('',(-0.0283339920948616,0.003,-0.0145));
#1154=CARTESIAN_POINT('',(0.0956660079051383,0.003,0.0125));
#1155=CARTESIAN_POINT('',(0.0956660079051383,0.00102363080178399,0.00164572224989736));
#1156=CARTESIAN_POINT('',(0.0956660079051383,0.00102363080178399,0.00314572224989736));
#1157=CARTESIAN_POINT('',(0.0956660079051383,-0.00235502352006734,-0.00205998695917396));
#1158=CARTESIAN_POINT('',(0.0956660079051383,-0.00235502352006734,-0.000559986959173965));
#1159=CARTESIAN_POINT('',(0.0956660079051383,0.00102363080178399,-0.00205998695917396));
#1160=CARTESIAN_POINT('',(0.0956660079051383,0.00102363080178399,-0.000559986959173965));
#1161=CARTESIAN_POINT('',(0.0956660079051383,-0.00235502352006734,0.00164572224989736));
#1162=CARTESIAN_POINT('',(0.0956660079051383,-0.00235502352006734,0.00314572224989736));
#1163=CARTESIAN_POINT('',(0.0956660079051383,-0.00305020869265146,0.00368100215004886));
#1164=CARTESIAN_POINT('',(0.0956660079051383,-0.00605020869265146,0.00368100215004886));
#1165=CARTESIAN_POINT('',(0.0956660079051383,-0.00605020869265146,4.33680868994202E-19));
#1166=CARTESIAN_POINT('',(0.0956660079051383,-0.00605020869265146,-0.00368100215004886));
#1167=CARTESIAN_POINT('',(0.0956660079051383,-0.00305020869265146,-0.00368100215004886));
#1168=CARTESIAN_POINT('',(0.0956660079051383,0.003,-0.0145));
#1169=CARTESIAN_POINT('',(0.0956660079051383,0.00205020869265146,-0.00368100215004886));
#1170=CARTESIAN_POINT('',(0.0956660079051383,0.00505020869265146,-0.00368100215004886));
#1171=CARTESIAN_POINT('',(0.0956660079051383,0.00505020869265146,0.));
#1172=CARTESIAN_POINT('',(0.0956660079051383,0.00505020869265146,0.00368100215004886));
#1173=CARTESIAN_POINT('',(0.0956660079051383,0.00205020869265146,0.00368100215004886));
#1174=CARTESIAN_POINT('',(-0.0263339920948617,0.003,-0.0145));
#1175=CARTESIAN_POINT('',(0.0916660079051383,-0.00605020869265146,4.33680868994202E-19));
#1176=CARTESIAN_POINT('',(0.0916660079051383,-0.00605020869265146,0.00368100215004886));
#1177=CARTESIAN_POINT('',(0.0916660079051383,-0.00605020869265146,0.00368100215004886));
#1178=CARTESIAN_POINT('',(0.0916660079051383,-0.00605020869265146,4.33680868994202E-19));
#1179=CARTESIAN_POINT('',(0.0916660079051383,-0.00605020869265146,-0.00368100215004886));
#1180=CARTESIAN_POINT('',(0.0916660079051383,-0.00605020869265146,-0.00368100215004886));
#1181=CARTESIAN_POINT('',(0.0916660079051383,-0.0005,0.));
#1182=CARTESIAN_POINT('',(0.0916660079051383,-0.00305020869265146,-0.00368100215004886));
#1183=CARTESIAN_POINT('',(0.0916660079051383,-0.00305020869265146,0.00368100215004886));
#1184=CARTESIAN_POINT('',(0.0916660079051383,-0.00305020869265146,-0.00368100215004886));
#1185=CARTESIAN_POINT('',(0.0916660079051383,-0.00305020869265146,0.00368100215004886));
#1186=CARTESIAN_POINT('',(0.0916660079051383,-0.0005,0.));
#1187=CARTESIAN_POINT('',(0.0916660079051383,0.00205020869265146,-0.00368100215004886));
#1188=CARTESIAN_POINT('',(0.0916660079051383,0.00505020869265146,-0.00368100215004886));
#1189=CARTESIAN_POINT('',(0.0916660079051383,0.00205020869265146,0.00368100215004886));
#1190=CARTESIAN_POINT('',(0.0916660079051383,0.00505020869265146,0.00368100215004886));
#1191=CARTESIAN_POINT('',(0.0916660079051383,0.00505020869265146,0.));
#1192=CARTESIAN_POINT('',(0.0916660079051383,0.00205020869265146,0.00368100215004886));
#1193=CARTESIAN_POINT('',(0.0916660079051383,0.00505020869265146,0.00368100215004886));
#1194=CARTESIAN_POINT('',(0.0916660079051383,0.00205020869265146,-0.00368100215004886));
#1195=CARTESIAN_POINT('',(0.0916660079051383,0.00505020869265146,-0.00368100215004886));
#1196=CARTESIAN_POINT('',(0.0916660079051383,0.00505020869265146,0.));
#1197=CARTESIAN_POINT('',(0.0926660079051383,-0.00235502352006734,0.00164572224989736));
#1198=CARTESIAN_POINT('',(0.091764716976597,-0.00235502352006734,0.00164572224989736));
#1199=CARTESIAN_POINT('',(0.0926660079051383,-0.00235502352006734,0.00164572224989736));
#1200=CARTESIAN_POINT('',(0.0926660079051383,-0.00235502352006734,0.00314572224989736));
#1201=CARTESIAN_POINT('',(0.0956660079051383,-0.00235502352006734,0.00164572224989736));
#1202=CARTESIAN_POINT('',(0.0926660079051383,0.00102363080178399,-0.00205998695917396));
#1203=CARTESIAN_POINT('',(0.091764716976597,0.00102363080178399,-0.00205998695917396));
#1204=CARTESIAN_POINT('',(0.0926660079051383,0.00102363080178399,-0.00205998695917396));
#1205=CARTESIAN_POINT('',(0.0926660079051383,0.00102363080178399,-0.000559986959173965));
#1206=CARTESIAN_POINT('',(0.0956660079051383,0.00102363080178399,-0.00205998695917396));
#1207=CARTESIAN_POINT('',(0.0926660079051383,-0.00235502352006734,-0.00205998695917396));
#1208=CARTESIAN_POINT('',(0.091764716976597,-0.00235502352006734,-0.00205998695917396));
#1209=CARTESIAN_POINT('',(0.0926660079051383,-0.00235502352006734,-0.00205998695917396));
#1210=CARTESIAN_POINT('',(0.0926660079051383,-0.00235502352006734,-0.000559986959173965));
#1211=CARTESIAN_POINT('',(0.0956660079051383,-0.00235502352006734,-0.00205998695917396));
#1212=CARTESIAN_POINT('',(0.0926660079051383,0.00102363080178399,0.00164572224989736));
#1213=CARTESIAN_POINT('',(0.091764716976597,0.00102363080178399,0.00164572224989736));
#1214=CARTESIAN_POINT('',(0.0926660079051383,0.00102363080178399,0.00164572224989736));
#1215=CARTESIAN_POINT('',(0.0926660079051383,0.00102363080178399,0.00314572224989736));
#1216=CARTESIAN_POINT('',(0.0956660079051383,0.00102363080178399,0.00164572224989736));
#1217=CARTESIAN_POINT('',(-0.0253339920948616,-0.0005,-0.00425112526863814));
#1218=CARTESIAN_POINT('',(-0.0244327011663203,-0.0005,-0.00425112526863814));
#1219=CARTESIAN_POINT('',(-0.0253339920948616,-0.0005,-0.00425112526863814));
#1220=CARTESIAN_POINT('',(-0.0253339920948616,-0.0005,-0.00575112526863814));
#1221=CARTESIAN_POINT('',(-0.0283339920948616,-0.0005,-0.00425112526863814));
#1222=CARTESIAN_POINT('',(-0.0253339920948616,-0.0005,0.00425112526863814));
#1223=CARTESIAN_POINT('',(-0.0244327011663203,-0.0005,0.00425112526863814));
#1224=CARTESIAN_POINT('',(-0.0253339920948616,-0.0005,0.00425112526863814));
#1225=CARTESIAN_POINT('',(-0.0253339920948616,-0.0005,0.00275112526863814));
#1226=CARTESIAN_POINT('',(-0.0283339920948616,-0.0005,0.00425112526863814));
#1227=MECHANICAL_DESIGN_GEOMETRIC_PRESENTATION_REPRESENTATION('',(#750),
#1228);
#1228=(
GEOMETRIC_REPRESENTATION_CONTEXT(3)
GLOBAL_UNCERTAINTY_ASSIGNED_CONTEXT((#1229))
GLOBAL_UNIT_ASSIGNED_CONTEXT((#1232,#1231,#1230))
REPRESENTATION_CONTEXT('Default','TOP_LEVEL_ASSEMBLY_PART')
);
#1229=UNCERTAINTY_MEASURE_WITH_UNIT(LENGTH_MEASURE(1.E-8),#1232,
'DISTANCE_ACCURACY_VALUE','Maximum Tolerance applied to model');
#1230=(
NAMED_UNIT(*)
SI_UNIT($,.STERADIAN.)
SOLID_ANGLE_UNIT()
);
#1231=(
NAMED_UNIT(*)
PLANE_ANGLE_UNIT()
SI_UNIT($,.RADIAN.)
);
#1232=(
LENGTH_UNIT()
NAMED_UNIT(*)
SI_UNIT($,.METRE.)
);
#1233=PRODUCT_DEFINITION_SHAPE('','',#1234);
#1234=PRODUCT_DEFINITION('','',#1236,#1235);
#1235=PRODUCT_DEFINITION_CONTEXT('',#1242,'design');
#1236=PRODUCT_DEFINITION_FORMATION_WITH_SPECIFIED_SOURCE('','',#1238,
 .NOT_KNOWN.);
#1237=PRODUCT_RELATED_PRODUCT_CATEGORY('','',(#1238));
#1238=PRODUCT('Default','Default','Default',(#1240));
#1239=PRODUCT_CATEGORY('','');
#1240=PRODUCT_CONTEXT('',#1242,'mechanical');
#1241=APPLICATION_PROTOCOL_DEFINITION('international standard',
'ap242_managed_model_based_3d_engineering',2020,#1242);
#1242=APPLICATION_CONTEXT('managed model based 3d engineering');
ENDSEC;
END-ISO-10303-21;
